<svg width="1423" height="200" viewBox="0 0 1423 200" fill="none" xmlns="http://www.w3.org/2000/svg">
<rect width="1423" height="200" rx="50" fill="#F3E4EB"/>
<path d="M20.0712 185.445V172.593H27.4692V174.825H22.7892V177.651H27.1452V179.883H22.7892V183.195H27.4692V185.445H20.0712ZM28.6134 185.445L31.9434 180.423L28.7754 175.617H31.8174L33.7254 178.749L35.6514 175.617H38.6934L35.4894 180.423L38.8374 185.445H35.7954L33.7254 182.079L31.6554 185.445H28.6134ZM39.3437 176.499L40.8197 175.599L41.5937 173.529H43.3037V175.617H46.0577V177.633H43.3037V182.367C43.3037 183.105 43.7717 183.483 44.4737 183.483C45.0677 183.483 45.6077 183.375 46.1657 183.177V185.175C45.5897 185.445 44.7077 185.625 43.6997 185.625C41.9537 185.625 40.6217 184.905 40.6217 182.367V177.633H39.3437V176.499ZM52.1884 175.437C54.9064 175.437 56.5984 177.039 56.5984 179.901V181.197H50.2624C50.3164 182.709 51.1984 183.627 52.7104 183.627C53.9524 183.627 54.9424 183.375 56.0404 182.853V184.923C55.0504 185.409 54.0964 185.625 52.5844 185.625C49.6504 185.625 47.5444 184.005 47.5444 180.603C47.5444 177.183 49.4164 175.437 52.1884 175.437ZM52.2064 177.345C51.1444 177.345 50.4424 177.993 50.3164 179.415H54.0784C54.0604 178.245 53.4484 177.345 52.2064 177.345ZM64.2631 175.437C64.5331 175.437 64.9471 175.455 65.1631 175.509L64.9651 178.029C64.7671 177.975 64.4071 177.939 64.1731 177.939C62.7871 177.939 61.4551 178.587 61.4551 180.441V185.445H58.7731V175.617H60.8071L61.2031 177.273H61.3291C61.9051 176.265 62.9491 175.437 64.2631 175.437ZM66.947 185.445V175.617H68.999L69.359 176.877H69.503C70.133 175.869 71.303 175.437 72.527 175.437C74.633 175.437 76.019 176.517 76.019 179.037V185.445H73.337V179.703C73.337 178.263 72.851 177.579 71.753 177.579C70.115 177.579 69.629 178.731 69.629 180.819V185.445H66.947ZM82.521 179.379L84.231 179.325V178.893C84.231 177.867 83.655 177.399 82.701 177.399C81.747 177.399 80.847 177.705 79.929 178.119L79.047 176.301C80.073 175.779 81.423 175.419 82.809 175.419C85.473 175.419 86.895 176.517 86.895 178.893V185.445H85.023L84.501 184.113H84.429C83.565 185.175 82.827 185.625 81.171 185.625C79.443 185.625 78.129 184.653 78.129 182.511C78.129 180.423 79.587 179.505 82.521 179.379ZM80.883 182.529C80.883 183.339 81.405 183.663 82.179 183.663C83.331 183.663 84.231 182.943 84.231 181.701V180.891L83.187 180.927C81.459 180.981 80.883 181.593 80.883 182.529ZM92.3223 171.765V185.445H89.6403V171.765H92.3223ZM106.658 182.529C106.658 184.527 105.254 185.625 102.464 185.625C101.096 185.625 100.214 185.463 99.2245 185.049V182.835C100.286 183.321 101.618 183.663 102.554 183.663C103.58 183.663 104.012 183.321 104.012 182.817C104.012 182.313 103.796 182.061 101.888 181.269C100.034 180.477 99.2065 179.847 99.2065 178.173C99.2065 176.355 100.736 175.437 103.094 175.437C104.318 175.437 105.38 175.653 106.55 176.211L105.74 178.137C104.786 177.723 103.94 177.417 103.058 177.417C102.266 177.417 101.87 177.633 101.87 178.065C101.87 178.551 102.194 178.749 103.922 179.469C105.614 180.153 106.658 180.783 106.658 182.529ZM107.758 176.499L109.234 175.599L110.008 173.529H111.718V175.617H114.472V177.633H111.718V182.367C111.718 183.105 112.186 183.483 112.888 183.483C113.482 183.483 114.022 183.375 114.58 183.177V185.175C114.004 185.445 113.122 185.625 112.114 185.625C110.368 185.625 109.036 184.905 109.036 182.367V177.633H107.758V176.499ZM120.296 179.379L122.006 179.325V178.893C122.006 177.867 121.43 177.399 120.476 177.399C119.522 177.399 118.622 177.705 117.704 178.119L116.822 176.301C117.848 175.779 119.198 175.419 120.584 175.419C123.248 175.419 124.67 176.517 124.67 178.893V185.445H122.798L122.276 184.113H122.204C121.34 185.175 120.602 185.625 118.946 185.625C117.218 185.625 115.904 184.653 115.904 182.511C115.904 180.423 117.362 179.505 120.296 179.379ZM118.658 182.529C118.658 183.339 119.18 183.663 119.954 183.663C121.106 183.663 122.006 182.943 122.006 181.701V180.891L120.962 180.927C119.234 180.981 118.658 181.593 118.658 182.529ZM126.426 176.499L127.902 175.599L128.676 173.529H130.386V175.617H133.14V177.633H130.386V182.367C130.386 183.105 130.854 183.483 131.556 183.483C132.15 183.483 132.69 183.375 133.248 183.177V185.175C132.672 185.445 131.79 185.625 130.782 185.625C129.036 185.625 127.704 184.905 127.704 182.367V177.633H126.426V176.499ZM135.166 182.025V175.617H137.848V181.359C137.848 182.799 138.334 183.483 139.432 183.483C141.07 183.483 141.556 182.331 141.556 180.243V175.617H144.238V185.445H142.186L141.826 184.185H141.682C141.052 185.193 139.882 185.625 138.658 185.625C136.552 185.625 135.166 184.545 135.166 182.025ZM153.908 182.529C153.908 184.527 152.504 185.625 149.714 185.625C148.346 185.625 147.464 185.463 146.474 185.049V182.835C147.536 183.321 148.868 183.663 149.804 183.663C150.83 183.663 151.262 183.321 151.262 182.817C151.262 182.313 151.046 182.061 149.138 181.269C147.284 180.477 146.456 179.847 146.456 178.173C146.456 176.355 147.986 175.437 150.344 175.437C151.568 175.437 152.63 175.653 153.8 176.211L152.99 178.137C152.036 177.723 151.19 177.417 150.308 177.417C149.516 177.417 149.12 177.633 149.12 178.065C149.12 178.551 149.444 178.749 151.172 179.469C152.864 180.153 153.908 180.783 153.908 182.529Z" fill="black"/>
<rect x="226.039" y="59" width="203.291" height="88.4462" rx="20" fill="#1F8234"/>
<path d="M259.581 81.875C257.656 81.875 256.156 82.525 255.056 83.8C253.956 85.075 253.406 86.85 253.406 89.075C253.406 93.5 255.456 96.275 259.556 96.275C261.081 96.275 262.456 95.975 263.831 95.575V97.525C262.506 98.025 261.206 98.25 259.231 98.25C253.781 98.25 251.031 94.675 251.031 89.05C251.031 83.65 254.081 79.9 259.606 79.9C261.481 79.9 263.131 80.25 264.531 80.95L263.631 82.85C262.531 82.35 261.181 81.875 259.581 81.875ZM279.077 91.275C279.077 93.5 278.527 95.2 277.402 96.425C276.277 97.65 274.752 98.25 272.827 98.25C269.302 98.25 266.677 95.725 266.677 91.275C266.677 86.85 269.027 84.35 272.902 84.35C276.502 84.35 279.077 86.85 279.077 91.275ZM268.952 91.275C268.952 94.45 270.152 96.425 272.877 96.425C275.577 96.425 276.802 94.45 276.802 91.275C276.802 88.1 275.577 86.2 272.852 86.2C270.127 86.2 268.952 88.1 268.952 91.275ZM282.564 84.6H284.339L284.664 86.425H284.789C285.664 85.025 287.314 84.35 289.014 84.35C292.214 84.35 293.864 85.85 293.864 89.275V98H291.689V89.425C291.689 87.275 290.689 86.2 288.689 86.2C285.714 86.2 284.764 87.925 284.764 91.05V98H282.564V84.6ZM302.768 98.25C299.443 98.25 297.268 95.925 297.268 91.325C297.268 86.725 299.468 84.35 302.793 84.35C304.868 84.35 306.118 85.225 306.943 86.325H307.093C307.043 85.95 306.943 84.775 306.943 84.35V79H309.143V98H307.368L307.043 96.2H306.943C306.143 97.325 304.868 98.25 302.768 98.25ZM303.118 96.425C305.943 96.425 306.968 94.875 306.968 91.75V91.35C306.968 89.675 306.693 88.4 306.143 87.5C305.593 86.625 304.568 86.175 303.093 86.175C300.718 86.175 299.543 88.2 299.543 91.375C299.543 94.575 300.718 96.425 303.118 96.425ZM314.524 79.575C315.199 79.575 315.799 80 315.799 80.975C315.799 81.95 315.199 82.375 314.524 82.375C313.799 82.375 313.224 81.95 313.224 80.975C313.224 80 313.799 79.575 314.524 79.575ZM313.399 84.6H315.599V98H313.399V84.6ZM320.019 86.3H318.119V85.25L320.044 84.375L320.919 81.525H322.219V84.6H326.094V86.3H322.219V94.05C322.219 95.675 323.094 96.45 324.319 96.45C324.994 96.45 325.769 96.35 326.194 96.175V97.85C325.719 98.075 324.744 98.25 323.944 98.25C321.869 98.25 320.019 97.35 320.019 94.1V86.3ZM330.002 79.575C330.677 79.575 331.277 80 331.277 80.975C331.277 81.95 330.677 82.375 330.002 82.375C329.277 82.375 328.702 81.95 328.702 80.975C328.702 80 329.277 79.575 330.002 79.575ZM328.877 84.6H331.077V98H328.877V84.6ZM346.973 91.275C346.973 93.5 346.423 95.2 345.298 96.425C344.173 97.65 342.648 98.25 340.723 98.25C337.198 98.25 334.573 95.725 334.573 91.275C334.573 86.85 336.923 84.35 340.798 84.35C344.398 84.35 346.973 86.85 346.973 91.275ZM336.848 91.275C336.848 94.45 338.048 96.425 340.773 96.425C343.473 96.425 344.698 94.45 344.698 91.275C344.698 88.1 343.473 86.2 340.748 86.2C338.023 86.2 336.848 88.1 336.848 91.275ZM350.459 84.6H352.234L352.559 86.425H352.684C353.559 85.025 355.209 84.35 356.909 84.35C360.109 84.35 361.759 85.85 361.759 89.275V98H359.584V89.425C359.584 87.275 358.584 86.2 356.584 86.2C353.609 86.2 352.659 87.925 352.659 91.05V98H350.459V84.6ZM370.989 84.375C374.264 84.375 375.789 85.75 375.789 88.875V98H374.189L373.764 96.1H373.664C373.089 96.825 372.464 97.375 371.814 97.725C371.164 98.075 370.289 98.25 369.164 98.25C367.939 98.25 366.939 97.925 366.139 97.275C365.339 96.65 364.939 95.65 364.939 94.275C364.939 91.6 366.989 90.125 371.364 90L373.639 89.925V89.125C373.639 86.9 372.639 86.15 370.864 86.15C369.464 86.15 368.189 86.65 367.089 87.175L366.414 85.525C367.589 84.9 369.264 84.375 370.989 84.375ZM373.614 92.65V91.45L371.639 91.525C369.964 91.6 368.814 91.85 368.189 92.325C367.539 92.8 367.214 93.45 367.214 94.3C367.214 95.8 368.239 96.475 369.664 96.475C370.789 96.475 371.714 96.15 372.489 95.525C373.239 94.9 373.614 93.95 373.614 92.65ZM382.127 79V98H379.927V79H382.127ZM388.573 79V98H386.373V79H388.573ZM396.118 98.05L390.718 84.6H393.068L395.968 92.225C396.468 93.6 396.893 94.775 397.093 95.875H397.193C397.393 95.05 397.868 93.575 398.343 92.2L401.068 84.6H403.443L397.668 99.85C396.693 102.375 395.393 104 392.793 104C391.993 104 391.393 103.9 390.968 103.8V102.05C391.343 102.125 391.868 102.2 392.443 102.2C393.968 102.2 394.843 101.25 395.418 99.825L396.118 98.05ZM272.773 128L279.748 110.075H281.773L288.723 128H286.398L284.248 122.475H277.173L275.048 128H272.773ZM279.948 115.075L277.923 120.475H283.573L281.573 115.075C281.448 114.725 280.898 112.95 280.723 112.4C280.448 113.425 280.148 114.5 279.948 115.075ZM290.865 134V114.6H292.665L292.965 116.425H293.065C293.865 115.25 295.065 114.35 297.24 114.35C300.54 114.35 302.74 116.65 302.74 121.275C302.74 125.85 300.54 128.25 297.215 128.25C295.14 128.25 293.84 127.375 293.065 126.3H292.915C292.94 126.875 293.065 127.875 293.065 128.5V134H290.865ZM293.065 120.85V121.275C293.065 124.575 293.965 126.425 296.89 126.425C299.315 126.425 300.465 124.25 300.465 121.25C300.465 118.175 299.315 116.2 296.84 116.2C294.115 116.2 293.09 117.725 293.065 120.85ZM306.246 134V114.6H308.046L308.346 116.425H308.446C309.246 115.25 310.446 114.35 312.621 114.35C315.921 114.35 318.121 116.65 318.121 121.275C318.121 125.85 315.921 128.25 312.596 128.25C310.521 128.25 309.221 127.375 308.446 126.3H308.296C308.321 126.875 308.446 127.875 308.446 128.5V134H306.246ZM308.446 120.85V121.275C308.446 124.575 309.346 126.425 312.271 126.425C314.696 126.425 315.846 124.25 315.846 121.25C315.846 118.175 314.696 116.2 312.221 116.2C309.496 116.2 308.471 117.725 308.446 120.85ZM327.876 114.35C328.376 114.35 328.976 114.4 329.451 114.5L329.176 116.525C328.751 116.425 328.151 116.35 327.726 116.35C325.651 116.35 323.826 118.15 323.826 120.85V128H321.626V114.6H323.426L323.676 117.05H323.776C324.601 115.575 326.001 114.35 327.876 114.35ZM343.115 121.275C343.115 123.5 342.565 125.2 341.44 126.425C340.315 127.65 338.79 128.25 336.865 128.25C333.34 128.25 330.715 125.725 330.715 121.275C330.715 116.85 333.065 114.35 336.94 114.35C340.54 114.35 343.115 116.85 343.115 121.275ZM332.99 121.275C332.99 124.45 334.19 126.425 336.915 126.425C339.615 126.425 340.84 124.45 340.84 121.275C340.84 118.1 339.615 116.2 336.89 116.2C334.165 116.2 332.99 118.1 332.99 121.275ZM352.077 128H349.552L344.477 114.6H346.827L349.677 122.5C350.077 123.575 350.602 125.275 350.752 126.05H350.852C351.002 125.275 351.602 123.55 351.977 122.5L354.827 114.6H357.177L352.077 128ZM364.472 114.35C367.897 114.35 369.997 116.75 369.997 120.4V121.725H360.822C360.897 124.75 362.422 126.375 365.097 126.375C366.797 126.375 367.997 126.05 369.397 125.45V127.375C368.022 127.975 366.822 128.25 364.997 128.25C361.147 128.25 358.547 125.9 358.547 121.4C358.547 117.025 360.922 114.35 364.472 114.35ZM364.447 116.15C362.347 116.15 361.097 117.575 360.872 119.975H367.697C367.672 117.7 366.672 116.15 364.447 116.15ZM378.159 128.25C374.834 128.25 372.659 125.925 372.659 121.325C372.659 116.725 374.859 114.35 378.184 114.35C380.259 114.35 381.509 115.225 382.334 116.325H382.484C382.434 115.95 382.334 114.775 382.334 114.35V109H384.534V128H382.759L382.434 126.2H382.334C381.534 127.325 380.259 128.25 378.159 128.25ZM378.509 126.425C381.334 126.425 382.359 124.875 382.359 121.75V121.35C382.359 119.675 382.084 118.4 381.534 117.5C380.984 116.625 379.959 116.175 378.484 116.175C376.109 116.175 374.934 118.2 374.934 121.375C374.934 124.575 376.109 126.425 378.509 126.425Z" fill="white"/>
<rect x="703.303" y="60" width="203.669" height="88.4462" rx="20" fill="#1F8234"/>
<path d="M757.699 100.344L762.721 87.4377H764.179L769.183 100.344H767.509L765.961 96.3657H760.867L759.337 100.344H757.699ZM762.865 91.0377L761.407 94.9257H765.475L764.035 91.0377C763.945 90.7857 763.549 89.5077 763.423 89.1117C763.225 89.8497 763.009 90.6237 762.865 91.0377ZM774.145 90.5157C775.423 90.5157 776.449 90.9837 777.169 91.9737H777.259L777.475 90.6957H778.735V100.506C778.735 103.26 777.367 104.664 774.415 104.664C772.993 104.664 771.841 104.466 770.941 104.052V102.594C771.895 103.098 773.083 103.35 774.505 103.35C776.161 103.35 777.169 102.306 777.169 100.632V100.254C777.169 100.02 777.205 99.2277 777.223 99.0657H777.151C776.503 100.038 775.513 100.524 774.163 100.524C771.661 100.524 770.185 98.6877 770.185 95.5377C770.185 94.0077 770.545 92.7837 771.247 91.8657C771.949 90.9657 772.903 90.5157 774.145 90.5157ZM774.361 91.8477C772.759 91.8477 771.823 93.1797 771.823 95.5557C771.823 97.9317 772.687 99.2277 774.397 99.2277C776.341 99.2277 777.187 98.2377 777.187 95.9157V95.5377C777.187 92.9277 776.305 91.8477 774.361 91.8477ZM786.299 90.5157C786.659 90.5157 787.091 90.5517 787.433 90.6237L787.235 92.0817C786.929 92.0097 786.497 91.9557 786.191 91.9557C784.697 91.9557 783.383 93.2517 783.383 95.1957V100.344H781.799V90.6957H783.095L783.275 92.4597H783.347C783.941 91.3977 784.949 90.5157 786.299 90.5157ZM792.609 90.5157C795.075 90.5157 796.587 92.2437 796.587 94.8717V95.8257H789.981C790.035 98.0037 791.133 99.1737 793.059 99.1737C794.283 99.1737 795.147 98.9397 796.155 98.5077V99.8937C795.165 100.326 794.301 100.524 792.987 100.524C790.215 100.524 788.343 98.8317 788.343 95.5918C788.343 92.4417 790.053 90.5157 792.609 90.5157ZM792.591 91.8117C791.079 91.8117 790.179 92.8377 790.017 94.5657H794.931C794.913 92.9277 794.193 91.8117 792.591 91.8117ZM802.77 90.5157C805.236 90.5157 806.748 92.2437 806.748 94.8717V95.8257H800.142C800.196 98.0037 801.294 99.1737 803.22 99.1737C804.444 99.1737 805.308 98.9397 806.316 98.5077V99.8937C805.326 100.326 804.462 100.524 803.148 100.524C800.376 100.524 798.504 98.8317 798.504 95.5918C798.504 92.4417 800.214 90.5157 802.77 90.5157ZM802.752 91.8117C801.24 91.8117 800.34 92.8377 800.178 94.5657H805.092C805.074 92.9277 804.354 91.8117 802.752 91.8117ZM809.204 100.344V90.6957H810.482L810.716 92.0097H810.806C811.4 91.0017 812.498 90.5157 813.65 90.5157C815.162 90.5157 816.152 91.0557 816.602 92.1357H816.692C817.34 91.0377 818.51 90.5157 819.788 90.5157C821.966 90.5157 823.046 91.5957 823.046 94.0617V100.344H821.48V94.1337C821.48 92.6037 820.832 91.8477 819.518 91.8477C817.646 91.8477 816.908 92.9457 816.908 95.0157V100.344H815.342V94.1337C815.342 92.6037 814.676 91.8477 813.362 91.8477C811.418 91.8477 810.788 93.0897 810.788 95.3397V100.344H809.204ZM829.752 90.5157C832.218 90.5157 833.73 92.2437 833.73 94.8717V95.8257H827.124C827.178 98.0037 828.276 99.1737 830.202 99.1737C831.426 99.1737 832.29 98.9397 833.298 98.5077V99.8937C832.308 100.326 831.444 100.524 830.13 100.524C827.358 100.524 825.486 98.8317 825.486 95.5918C825.486 92.4417 827.196 90.5157 829.752 90.5157ZM829.734 91.8117C828.222 91.8117 827.322 92.8377 827.16 94.5657H832.074C832.056 92.9277 831.336 91.8117 829.734 91.8117ZM836.186 90.6957H837.464L837.698 92.0097H837.788C838.418 91.0017 839.606 90.5157 840.83 90.5157C843.134 90.5157 844.322 91.5957 844.322 94.0617V100.344H842.756V94.1697C842.756 92.6217 842.036 91.8477 840.596 91.8477C838.454 91.8477 837.77 93.0897 837.77 95.3397V100.344H836.186V90.6957ZM847.439 91.9197H846.071V91.1637L847.457 90.5337L848.087 88.4817H849.023V90.6957H851.813V91.9197H849.023V97.4997C849.023 98.6697 849.653 99.2277 850.535 99.2277C851.021 99.2277 851.579 99.1558 851.885 99.0297V100.236C851.543 100.398 850.841 100.524 850.265 100.524C848.771 100.524 847.439 99.8757 847.439 97.5357V91.9197ZM785.052 120.906C785.052 122.04 784.638 122.94 783.81 123.57C782.982 124.2 781.866 124.524 780.462 124.524C779.022 124.524 777.744 124.29 776.934 123.912V122.364C777.798 122.742 779.166 123.12 780.534 123.12C782.424 123.12 783.432 122.328 783.432 121.05C783.432 119.772 782.73 119.268 780.408 118.404C778.194 117.612 777.096 116.586 777.096 114.588C777.096 112.572 778.77 111.312 781.2 111.312C782.586 111.312 783.756 111.6 784.746 112.032L784.242 113.418C783.36 113.04 782.262 112.734 781.164 112.734C779.562 112.734 778.734 113.472 778.734 114.606C778.734 115.902 779.454 116.442 781.542 117.198C783.81 118.026 785.052 118.89 785.052 120.906ZM788.234 111.078C788.72 111.078 789.152 111.384 789.152 112.086C789.152 112.788 788.72 113.094 788.234 113.094C787.712 113.094 787.298 112.788 787.298 112.086C787.298 111.384 787.712 111.078 788.234 111.078ZM787.424 114.696H789.008V124.344H787.424V114.696ZM795.485 114.516C796.763 114.516 797.789 114.984 798.509 115.974H798.599L798.815 114.696H800.075V124.506C800.075 127.26 798.707 128.664 795.755 128.664C794.333 128.664 793.181 128.466 792.281 128.052V126.594C793.235 127.098 794.423 127.35 795.845 127.35C797.501 127.35 798.509 126.306 798.509 124.632V124.254C798.509 124.02 798.545 123.228 798.563 123.066H798.491C797.843 124.038 796.853 124.524 795.503 124.524C793.001 124.524 791.525 122.688 791.525 119.538C791.525 118.008 791.885 116.784 792.587 115.866C793.289 114.966 794.243 114.516 795.485 114.516ZM795.701 115.848C794.099 115.848 793.163 117.18 793.163 119.556C793.163 121.932 794.027 123.228 795.737 123.228C797.681 123.228 798.527 122.238 798.527 119.916V119.538C798.527 116.928 797.645 115.848 795.701 115.848ZM803.139 114.696H804.417L804.651 116.01H804.741C805.371 115.002 806.559 114.516 807.783 114.516C810.087 114.516 811.275 115.596 811.275 118.062V124.344H809.709V118.17C809.709 116.622 808.989 115.848 807.549 115.848C805.407 115.848 804.723 117.09 804.723 119.34V124.344H803.139V114.696ZM817.992 114.516C820.458 114.516 821.97 116.244 821.97 118.872V119.826H815.364C815.418 122.004 816.516 123.174 818.442 123.174C819.666 123.174 820.53 122.94 821.538 122.508V123.894C820.548 124.326 819.684 124.524 818.37 124.524C815.598 124.524 813.726 122.832 813.726 119.592C813.726 116.442 815.436 114.516 817.992 114.516ZM817.974 115.812C816.462 115.812 815.562 116.838 815.4 118.566H820.314C820.296 116.928 819.576 115.812 817.974 115.812ZM827.846 124.524C825.452 124.524 823.886 122.85 823.886 119.538C823.886 116.226 825.47 114.516 827.864 114.516C829.358 114.516 830.258 115.146 830.852 115.938H830.96C830.924 115.668 830.852 114.822 830.852 114.516V110.664H832.436V124.344H831.158L830.924 123.048H830.852C830.276 123.858 829.358 124.524 827.846 124.524ZM828.098 123.21C830.132 123.21 830.87 122.094 830.87 119.844V119.556C830.87 118.35 830.672 117.432 830.276 116.784C829.88 116.154 829.142 115.83 828.08 115.83C826.37 115.83 825.524 117.288 825.524 119.574C825.524 121.878 826.37 123.21 828.098 123.21Z" fill="white"/>
<rect x="688" y="60" width="203.669" height="88.4462" rx="20" fill="#1F8234"/>
<path d="M730.459 104L737.434 86.075H739.459L746.409 104H744.084L741.934 98.475H734.859L732.734 104H730.459ZM737.634 91.075L735.609 96.475H741.259L739.259 91.075C739.134 90.725 738.584 88.95 738.409 88.4C738.134 89.425 737.834 90.5 737.634 91.075ZM753.301 90.35C755.076 90.35 756.501 91 757.501 92.375H757.626L757.926 90.6H759.676V104.225C759.676 108.05 757.776 110 753.676 110C751.701 110 750.101 109.725 748.851 109.15V107.125C750.176 107.825 751.826 108.175 753.801 108.175C756.101 108.175 757.501 106.725 757.501 104.4V103.875C757.501 103.55 757.551 102.45 757.576 102.225H757.476C756.576 103.575 755.201 104.25 753.326 104.25C749.851 104.25 747.801 101.7 747.801 97.325C747.801 95.2 748.301 93.5 749.276 92.225C750.251 90.975 751.576 90.35 753.301 90.35ZM753.601 92.2C751.376 92.2 750.076 94.05 750.076 97.35C750.076 100.65 751.276 102.45 753.651 102.45C756.351 102.45 757.526 101.075 757.526 97.85V97.325C757.526 93.7 756.301 92.2 753.601 92.2ZM770.182 90.35C770.682 90.35 771.282 90.4 771.757 90.5L771.482 92.525C771.057 92.425 770.457 92.35 770.032 92.35C767.957 92.35 766.132 94.15 766.132 96.85V104H763.932V90.6H765.732L765.982 93.05H766.082C766.907 91.575 768.307 90.35 770.182 90.35ZM778.946 90.35C782.371 90.35 784.471 92.75 784.471 96.4V97.725H775.296C775.371 100.75 776.896 102.375 779.571 102.375C781.271 102.375 782.471 102.05 783.871 101.45V103.375C782.496 103.975 781.296 104.25 779.471 104.25C775.621 104.25 773.021 101.9 773.021 97.4C773.021 93.025 775.396 90.35 778.946 90.35ZM778.921 92.15C776.821 92.15 775.571 93.575 775.346 95.975H782.171C782.146 93.7 781.146 92.15 778.921 92.15ZM793.057 90.35C796.482 90.35 798.582 92.75 798.582 96.4V97.725H789.407C789.482 100.75 791.007 102.375 793.682 102.375C795.382 102.375 796.582 102.05 797.982 101.45V103.375C796.607 103.975 795.407 104.25 793.582 104.25C789.732 104.25 787.132 101.9 787.132 97.4C787.132 93.025 789.507 90.35 793.057 90.35ZM793.032 92.15C790.932 92.15 789.682 93.575 789.457 95.975H796.282C796.257 93.7 795.257 92.15 793.032 92.15ZM801.994 104V90.6H803.769L804.094 92.425H804.219C805.044 91.025 806.569 90.35 808.169 90.35C810.269 90.35 811.644 91.1 812.269 92.6H812.394C813.294 91.075 814.919 90.35 816.694 90.35C819.719 90.35 821.219 91.85 821.219 95.275V104H819.044V95.375C819.044 93.25 818.144 92.2 816.319 92.2C813.719 92.2 812.694 93.725 812.694 96.6V104H810.519V95.375C810.519 93.25 809.594 92.2 807.769 92.2C805.069 92.2 804.194 93.925 804.194 97.05V104H801.994ZM830.533 90.35C833.958 90.35 836.058 92.75 836.058 96.4V97.725H826.883C826.958 100.75 828.483 102.375 831.158 102.375C832.858 102.375 834.058 102.05 835.458 101.45V103.375C834.083 103.975 832.883 104.25 831.058 104.25C827.208 104.25 824.608 101.9 824.608 97.4C824.608 93.025 826.983 90.35 830.533 90.35ZM830.508 92.15C828.408 92.15 827.158 93.575 826.933 95.975H833.758C833.733 93.7 832.733 92.15 830.508 92.15ZM839.469 90.6H841.244L841.569 92.425H841.694C842.569 91.025 844.219 90.35 845.919 90.35C849.119 90.35 850.769 91.85 850.769 95.275V104H848.594V95.425C848.594 93.275 847.594 92.2 845.594 92.2C842.619 92.2 841.669 93.925 841.669 97.05V104H839.469V90.6ZM855.098 92.3H853.198V91.25L855.123 90.375L855.998 87.525H857.298V90.6H861.173V92.3H857.298V100.05C857.298 101.675 858.173 102.45 859.398 102.45C860.073 102.45 860.848 102.35 861.273 102.175V103.85C860.798 104.075 859.823 104.25 859.023 104.25C856.948 104.25 855.098 103.35 855.098 100.1V92.3ZM768.449 129.225C768.449 130.8 767.874 132.05 766.724 132.925C765.574 133.8 764.024 134.25 762.074 134.25C760.074 134.25 758.299 133.925 757.174 133.4V131.25C758.374 131.775 760.274 132.3 762.174 132.3C764.799 132.3 766.199 131.2 766.199 129.425C766.199 127.65 765.224 126.95 761.999 125.75C758.924 124.65 757.399 123.225 757.399 120.45C757.399 117.65 759.724 115.9 763.099 115.9C765.024 115.9 766.649 116.3 768.024 116.9L767.324 118.825C766.099 118.3 764.574 117.875 763.049 117.875C760.824 117.875 759.674 118.9 759.674 120.475C759.674 122.275 760.674 123.025 763.574 124.075C766.724 125.225 768.449 126.425 768.449 129.225ZM772.87 115.575C773.545 115.575 774.145 116 774.145 116.975C774.145 117.95 773.545 118.375 772.87 118.375C772.145 118.375 771.57 117.95 771.57 116.975C771.57 116 772.145 115.575 772.87 115.575ZM771.745 120.6H773.945V134H771.745V120.6ZM782.94 120.35C784.715 120.35 786.14 121 787.14 122.375H787.265L787.565 120.6H789.315V134.225C789.315 138.05 787.415 140 783.315 140C781.34 140 779.74 139.725 778.49 139.15V137.125C779.815 137.825 781.465 138.175 783.44 138.175C785.74 138.175 787.14 136.725 787.14 134.4V133.875C787.14 133.55 787.19 132.45 787.215 132.225H787.115C786.215 133.575 784.84 134.25 782.965 134.25C779.49 134.25 777.44 131.7 777.44 127.325C777.44 125.2 777.94 123.5 778.915 122.225C779.89 120.975 781.215 120.35 782.94 120.35ZM783.24 122.2C781.015 122.2 779.715 124.05 779.715 127.35C779.715 130.65 780.915 132.45 783.29 132.45C785.99 132.45 787.165 131.075 787.165 127.85V127.325C787.165 123.7 785.94 122.2 783.24 122.2ZM793.571 120.6H795.346L795.671 122.425H795.796C796.671 121.025 798.321 120.35 800.021 120.35C803.221 120.35 804.871 121.85 804.871 125.275V134H802.696V125.425C802.696 123.275 801.696 122.2 799.696 122.2C796.721 122.2 795.771 123.925 795.771 127.05V134H793.571V120.6ZM814.2 120.35C817.625 120.35 819.725 122.75 819.725 126.4V127.725H810.55C810.625 130.75 812.15 132.375 814.825 132.375C816.525 132.375 817.725 132.05 819.125 131.45V133.375C817.75 133.975 816.55 134.25 814.725 134.25C810.875 134.25 808.275 131.9 808.275 127.4C808.275 123.025 810.65 120.35 814.2 120.35ZM814.175 122.15C812.075 122.15 810.825 123.575 810.6 125.975H817.425C817.4 123.7 816.4 122.15 814.175 122.15ZM827.886 134.25C824.561 134.25 822.386 131.925 822.386 127.325C822.386 122.725 824.586 120.35 827.911 120.35C829.986 120.35 831.236 121.225 832.061 122.325H832.211C832.161 121.95 832.061 120.775 832.061 120.35V115H834.261V134H832.486L832.161 132.2H832.061C831.261 133.325 829.986 134.25 827.886 134.25ZM828.236 132.425C831.061 132.425 832.086 130.875 832.086 127.75V127.35C832.086 125.675 831.811 124.4 831.261 123.5C830.711 122.625 829.686 122.175 828.211 122.175C825.836 122.175 824.661 124.2 824.661 127.375C824.661 130.575 825.836 132.425 828.236 132.425Z" fill="white"/>
<rect x="1164" y="59" width="203.669" height="88.4462" rx="20" fill="#D1EAD7"/>
<path d="M1212.62 99.6562H1210.37V81.8062H1215.3C1219.72 81.8062 1221.8 83.4812 1221.8 86.8812C1221.8 89.7312 1220 91.0562 1218.22 91.6562L1223.12 99.6562H1220.5L1216.17 92.2812H1212.62V99.6562ZM1212.62 83.7562V90.3812H1215.3C1218.2 90.3812 1219.47 89.2062 1219.47 86.9812C1219.47 84.6562 1218.1 83.7562 1215.17 83.7562H1212.62ZM1230.8 86.0062C1234.22 86.0062 1236.32 88.4062 1236.32 92.0562V93.3812H1227.15C1227.22 96.4062 1228.75 98.0312 1231.42 98.0312C1233.12 98.0312 1234.32 97.7062 1235.72 97.1062V99.0312C1234.35 99.6312 1233.15 99.9063 1231.32 99.9063C1227.47 99.9063 1224.87 97.5562 1224.87 93.0563C1224.87 88.6812 1227.25 86.0062 1230.8 86.0062ZM1230.77 87.8062C1228.67 87.8062 1227.42 89.2312 1227.2 91.6312H1234.02C1234 89.3562 1233 87.8062 1230.77 87.8062ZM1239.74 105.656V86.2562H1241.54L1241.84 88.0812H1241.94C1242.74 86.9062 1243.94 86.0062 1246.11 86.0062C1249.41 86.0062 1251.61 88.3062 1251.61 92.9312C1251.61 97.5062 1249.41 99.9063 1246.09 99.9063C1244.01 99.9063 1242.71 99.0312 1241.94 97.9562H1241.79C1241.81 98.5312 1241.94 99.5312 1241.94 100.156V105.656H1239.74ZM1241.94 92.5062V92.9312C1241.94 96.2312 1242.84 98.0812 1245.76 98.0812C1248.19 98.0812 1249.34 95.9062 1249.34 92.9062C1249.34 89.8312 1248.19 87.8562 1245.71 87.8562C1242.99 87.8562 1241.96 89.3812 1241.94 92.5062ZM1266.77 92.9312C1266.77 95.1562 1266.22 96.8562 1265.09 98.0812C1263.97 99.3062 1262.44 99.9063 1260.52 99.9063C1256.99 99.9063 1254.37 97.3812 1254.37 92.9312C1254.37 88.5062 1256.72 86.0062 1260.59 86.0062C1264.19 86.0062 1266.77 88.5062 1266.77 92.9312ZM1256.64 92.9312C1256.64 96.1062 1257.84 98.0812 1260.57 98.0812C1263.27 98.0812 1264.49 96.1062 1264.49 92.9312C1264.49 89.7562 1263.27 87.8562 1260.54 87.8562C1257.82 87.8562 1256.64 89.7562 1256.64 92.9312ZM1276.5 86.0062C1277 86.0062 1277.6 86.0562 1278.08 86.1562L1277.8 88.1812C1277.38 88.0812 1276.78 88.0062 1276.35 88.0062C1274.28 88.0062 1272.45 89.8062 1272.45 92.5062V99.6562H1270.25V86.2562H1272.05L1272.3 88.7062H1272.4C1273.23 87.2312 1274.63 86.0062 1276.5 86.0062ZM1280.76 87.9562H1278.86V86.9062L1280.78 86.0312L1281.66 83.1812H1282.96V86.2562H1286.83V87.9562H1282.96V95.7062C1282.96 97.3312 1283.83 98.1062 1285.06 98.1062C1285.73 98.1062 1286.51 98.0063 1286.93 97.8312V99.5062C1286.46 99.7313 1285.48 99.9063 1284.68 99.9063C1282.61 99.9063 1280.76 99.0062 1280.76 95.7562V87.9562ZM1290.74 81.2312C1291.41 81.2312 1292.01 81.6562 1292.01 82.6312C1292.01 83.6062 1291.41 84.0312 1290.74 84.0312C1290.01 84.0312 1289.44 83.6062 1289.44 82.6312C1289.44 81.6562 1290.01 81.2312 1290.74 81.2312ZM1289.61 86.2562H1291.81V99.6562H1289.61V86.2562ZM1296.06 86.2562H1297.83L1298.16 88.0812H1298.28C1299.16 86.6812 1300.81 86.0062 1302.51 86.0062C1305.71 86.0062 1307.36 87.5062 1307.36 90.9312V99.6562H1305.18V91.0812C1305.18 88.9312 1304.18 87.8562 1302.18 87.8562C1299.21 87.8562 1298.26 89.5812 1298.26 92.7062V99.6562H1296.06V86.2562ZM1316.26 86.0062C1318.04 86.0062 1319.46 86.6562 1320.46 88.0312H1320.59L1320.89 86.2562H1322.64V99.8813C1322.64 103.706 1320.74 105.656 1316.64 105.656C1314.66 105.656 1313.06 105.381 1311.81 104.806V102.781C1313.14 103.481 1314.79 103.831 1316.76 103.831C1319.06 103.831 1320.46 102.381 1320.46 100.056V99.5312C1320.46 99.2062 1320.51 98.1062 1320.54 97.8812H1320.44C1319.54 99.2312 1318.16 99.9063 1316.29 99.9063C1312.81 99.9063 1310.76 97.3562 1310.76 92.9812C1310.76 90.8562 1311.26 89.1562 1312.24 87.8812C1313.21 86.6312 1314.54 86.0062 1316.26 86.0062ZM1316.56 87.8562C1314.34 87.8562 1313.04 89.7062 1313.04 93.0062C1313.04 96.3062 1314.24 98.1062 1316.61 98.1062C1319.31 98.1062 1320.49 96.7312 1320.49 93.5062V92.9812C1320.49 89.3562 1319.26 87.8562 1316.56 87.8562ZM1219.74 113.531C1217.82 113.531 1216.32 114.181 1215.22 115.456C1214.12 116.731 1213.57 118.506 1213.57 120.731C1213.57 125.156 1215.62 127.931 1219.72 127.931C1221.24 127.931 1222.62 127.631 1223.99 127.231V129.181C1222.67 129.681 1221.37 129.906 1219.39 129.906C1213.94 129.906 1211.19 126.331 1211.19 120.706C1211.19 115.306 1214.24 111.556 1219.77 111.556C1221.64 111.556 1223.29 111.906 1224.69 112.606L1223.79 114.506C1222.69 114.006 1221.34 113.531 1219.74 113.531ZM1239.24 122.931C1239.24 125.156 1238.69 126.856 1237.56 128.081C1236.44 129.306 1234.91 129.906 1232.99 129.906C1229.46 129.906 1226.84 127.381 1226.84 122.931C1226.84 118.506 1229.19 116.006 1233.06 116.006C1236.66 116.006 1239.24 118.506 1239.24 122.931ZM1229.11 122.931C1229.11 126.106 1230.31 128.081 1233.04 128.081C1235.74 128.081 1236.96 126.106 1236.96 122.931C1236.96 119.756 1235.74 117.856 1233.01 117.856C1230.29 117.856 1229.11 119.756 1229.11 122.931ZM1242.73 129.656V116.256H1244.5L1244.83 118.081H1244.95C1245.78 116.681 1247.3 116.006 1248.9 116.006C1251 116.006 1252.38 116.756 1253 118.256H1253.13C1254.03 116.731 1255.65 116.006 1257.43 116.006C1260.45 116.006 1261.95 117.506 1261.95 120.931V129.656H1259.78V121.031C1259.78 118.906 1258.88 117.856 1257.05 117.856C1254.45 117.856 1253.43 119.381 1253.43 122.256V129.656H1251.25V121.031C1251.25 118.906 1250.33 117.856 1248.5 117.856C1245.8 117.856 1244.93 119.581 1244.93 122.706V129.656H1242.73ZM1266.09 135.656V116.256H1267.89L1268.19 118.081H1268.29C1269.09 116.906 1270.29 116.006 1272.47 116.006C1275.77 116.006 1277.97 118.306 1277.97 122.931C1277.97 127.506 1275.77 129.906 1272.44 129.906C1270.37 129.906 1269.07 129.031 1268.29 127.956H1268.14C1268.17 128.531 1268.29 129.531 1268.29 130.156V135.656H1266.09ZM1268.29 122.506V122.931C1268.29 126.231 1269.19 128.081 1272.12 128.081C1274.54 128.081 1275.69 125.906 1275.69 122.906C1275.69 119.831 1274.54 117.856 1272.07 117.856C1269.34 117.856 1268.32 119.381 1268.29 122.506ZM1283.67 110.656V129.656H1281.47V110.656H1283.67ZM1293.09 116.006C1296.52 116.006 1298.62 118.406 1298.62 122.056V123.381H1289.44C1289.52 126.406 1291.04 128.031 1293.72 128.031C1295.42 128.031 1296.62 127.706 1298.02 127.106V129.031C1296.64 129.631 1295.44 129.906 1293.62 129.906C1289.77 129.906 1287.17 127.556 1287.17 123.056C1287.17 118.681 1289.54 116.006 1293.09 116.006ZM1293.07 117.806C1290.97 117.806 1289.72 119.231 1289.49 121.631H1296.32C1296.29 119.356 1295.29 117.806 1293.07 117.806ZM1302.2 117.956H1300.3V116.906L1302.23 116.031L1303.1 113.181H1304.4V116.256H1308.28V117.956H1304.4V125.706C1304.4 127.331 1305.28 128.106 1306.5 128.106C1307.18 128.106 1307.95 128.006 1308.38 127.831V129.506C1307.9 129.731 1306.93 129.906 1306.13 129.906C1304.05 129.906 1302.2 129.006 1302.2 125.756V117.956ZM1316.24 116.006C1319.66 116.006 1321.76 118.406 1321.76 122.056V123.381H1312.59C1312.66 126.406 1314.19 128.031 1316.86 128.031C1318.56 128.031 1319.76 127.706 1321.16 127.106V129.031C1319.79 129.631 1318.59 129.906 1316.76 129.906C1312.91 129.906 1310.31 127.556 1310.31 123.056C1310.31 118.681 1312.69 116.006 1316.24 116.006ZM1316.21 117.806C1314.11 117.806 1312.86 119.231 1312.64 121.631H1319.46C1319.44 119.356 1318.44 117.806 1316.21 117.806Z" fill="black"/>
<g filter="url(#filter0_d_4686_18060)">
<rect width="96.6766" height="94.7344" rx="10" transform="matrix(0.852581 0.522595 -0.828409 0.560123 557.479 54)" fill="#FFE7AE"/>
<path d="M526.701 90V77.862H533.654V79.97H529.234V83.098H533.348V85.206H529.234V90H526.701ZM535.776 86.77V80.718H538.309V86.141C538.309 87.501 538.768 88.147 539.805 88.147C541.352 88.147 541.811 87.059 541.811 85.087V80.718H544.344V90H542.406L542.066 88.81H541.93C541.335 89.762 540.23 90.17 539.074 90.17C537.085 90.17 535.776 89.15 535.776 86.77ZM547 90V80.718H548.938L549.278 81.908H549.414C550.009 80.956 551.114 80.548 552.27 80.548C554.259 80.548 555.568 81.568 555.568 83.948V90H553.035V84.577C553.035 83.217 552.576 82.571 551.539 82.571C549.992 82.571 549.533 83.659 549.533 85.631V90H547ZM561.113 90.17C559.056 90.17 557.611 88.521 557.611 85.376C557.611 82.197 559.056 80.548 561.181 80.548C562.524 80.548 563.357 81.143 563.85 81.908H563.935C563.867 81.551 563.748 80.786 563.748 80.055V77.08H566.281V90H564.343L563.85 88.793H563.748C563.255 89.558 562.456 90.17 561.113 90.17ZM561.997 88.147C563.374 88.147 563.867 87.314 563.918 85.665V85.393C563.918 83.608 563.459 82.605 561.963 82.605C560.858 82.605 560.178 83.591 560.178 85.41C560.178 87.229 560.841 88.147 561.997 88.147ZM570.205 77.08C570.953 77.08 571.582 77.369 571.582 78.321C571.582 79.256 570.953 79.562 570.205 79.562C569.44 79.562 568.828 79.256 568.828 78.321C568.828 77.369 569.44 77.08 570.205 77.08ZM568.93 80.718H571.463V90H568.93V80.718ZM574.11 90V80.718H576.048L576.388 81.908H576.524C577.119 80.956 578.224 80.548 579.38 80.548C581.369 80.548 582.678 81.568 582.678 83.948V90H580.145V84.577C580.145 83.217 579.686 82.571 578.649 82.571C577.102 82.571 576.643 83.659 576.643 85.631V90H574.11ZM588.292 80.548C589.431 80.548 590.332 81.007 590.978 81.908H591.046L591.25 80.718H593.392V90.017C593.392 92.669 591.811 94.08 588.751 94.08C587.442 94.08 586.354 93.944 585.283 93.536V91.513C586.422 91.989 587.629 92.227 588.904 92.227C590.213 92.227 590.859 91.53 590.859 90.119V89.932C590.859 89.575 590.876 89.116 590.927 88.793H590.859C590.23 89.762 589.329 90.17 588.224 90.17C586.031 90.17 584.722 88.385 584.722 85.376C584.722 82.333 586.065 80.548 588.292 80.548ZM589.091 82.605C587.901 82.605 587.306 83.54 587.306 85.41C587.306 87.263 587.918 88.181 589.125 88.181C590.417 88.181 591.029 87.535 591.029 85.699V85.393C591.029 83.404 590.451 82.605 589.091 82.605ZM515.705 104.271L517.32 104.22V103.812C517.32 102.843 516.776 102.401 515.875 102.401C514.974 102.401 514.124 102.69 513.257 103.081L512.424 101.364C513.393 100.871 514.668 100.531 515.977 100.531C518.493 100.531 519.836 101.568 519.836 103.812V110H518.068L517.575 108.742H517.507C516.691 109.745 515.994 110.17 514.43 110.17C512.798 110.17 511.557 109.252 511.557 107.229C511.557 105.257 512.934 104.39 515.705 104.271ZM514.158 107.246C514.158 108.011 514.651 108.317 515.382 108.317C516.47 108.317 517.32 107.637 517.32 106.464V105.699L516.334 105.733C514.702 105.784 514.158 106.362 514.158 107.246ZM525.438 100.548C526.577 100.548 527.478 101.007 528.124 101.908H528.192L528.396 100.718H530.538V110.017C530.538 112.669 528.957 114.08 525.897 114.08C524.588 114.08 523.5 113.944 522.429 113.536V111.513C523.568 111.989 524.775 112.227 526.05 112.227C527.359 112.227 528.005 111.53 528.005 110.119V109.932C528.005 109.575 528.022 109.116 528.073 108.793H528.005C527.376 109.762 526.475 110.17 525.37 110.17C523.177 110.17 521.868 108.385 521.868 105.376C521.868 102.333 523.211 100.548 525.438 100.548ZM526.237 102.605C525.047 102.605 524.452 103.54 524.452 105.41C524.452 107.263 525.064 108.181 526.271 108.181C527.563 108.181 528.175 107.535 528.175 105.699V105.393C528.175 103.404 527.597 102.605 526.237 102.605ZM538.372 100.548C538.627 100.548 539.018 100.565 539.222 100.616L539.035 102.996C538.848 102.945 538.508 102.911 538.287 102.911C536.978 102.911 535.72 103.523 535.72 105.274V110H533.187V100.718H535.108L535.482 102.282H535.601C536.145 101.33 537.131 100.548 538.372 100.548ZM544.4 100.548C546.967 100.548 548.565 102.061 548.565 104.764V105.988H542.581C542.632 107.416 543.465 108.283 544.893 108.283C546.066 108.283 547.001 108.045 548.038 107.552V109.507C547.103 109.966 546.202 110.17 544.774 110.17C542.003 110.17 540.014 108.64 540.014 105.427C540.014 102.197 541.782 100.548 544.4 100.548ZM544.417 102.35C543.414 102.35 542.751 102.962 542.632 104.305H546.185C546.168 103.2 545.59 102.35 544.417 102.35ZM554.444 100.548C557.011 100.548 558.609 102.061 558.609 104.764V105.988H552.625C552.676 107.416 553.509 108.283 554.937 108.283C556.11 108.283 557.045 108.045 558.082 107.552V109.507C557.147 109.966 556.246 110.17 554.818 110.17C552.047 110.17 550.058 108.64 550.058 105.427C550.058 102.197 551.826 100.548 554.444 100.548ZM554.461 102.35C553.458 102.35 552.795 102.962 552.676 104.305H556.229C556.212 103.2 555.634 102.35 554.461 102.35ZM563.196 110H560.663V100.718H562.601L562.941 101.908H563.077C563.638 100.956 564.692 100.548 565.78 100.548C567.14 100.548 568.075 100.956 568.602 101.908H568.823C569.384 100.956 570.472 100.548 571.56 100.548C573.668 100.548 574.756 101.568 574.756 103.948V110H572.223V104.577C572.223 103.234 571.764 102.571 570.829 102.571C569.469 102.571 568.976 103.557 568.976 105.342V110H566.443V104.577C566.443 103.234 565.984 102.571 565.049 102.571C563.638 102.571 563.196 103.659 563.196 105.631V110ZM581.189 100.548C583.756 100.548 585.354 102.061 585.354 104.764V105.988H579.37C579.421 107.416 580.254 108.283 581.682 108.283C582.855 108.283 583.79 108.045 584.827 107.552V109.507C583.892 109.966 582.991 110.17 581.563 110.17C578.792 110.17 576.803 108.64 576.803 105.427C576.803 102.197 578.571 100.548 581.189 100.548ZM581.206 102.35C580.203 102.35 579.54 102.962 579.421 104.305H582.974C582.957 103.2 582.379 102.35 581.206 102.35ZM587.408 110V100.718H589.346L589.686 101.908H589.822C590.417 100.956 591.522 100.548 592.678 100.548C594.667 100.548 595.976 101.568 595.976 103.948V110H593.443V104.577C593.443 103.217 592.984 102.571 591.947 102.571C590.4 102.571 589.941 103.659 589.941 105.631V110H587.408ZM597.646 101.551L599.04 100.701L599.771 98.746H601.386V100.718H603.987V102.622H601.386V107.093C601.386 107.79 601.828 108.147 602.491 108.147C603.052 108.147 603.562 108.045 604.089 107.858V109.745C603.545 110 602.712 110.17 601.76 110.17C600.111 110.17 598.853 109.49 598.853 107.093V102.622H597.646V101.551ZM539.564 127.246C539.564 129.133 538.238 130.17 535.603 130.17C534.311 130.17 533.478 130.017 532.543 129.626V127.535C533.546 127.994 534.804 128.317 535.688 128.317C536.657 128.317 537.065 127.994 537.065 127.518C537.065 127.042 536.861 126.804 535.059 126.056C533.308 125.308 532.526 124.713 532.526 123.132C532.526 121.415 533.971 120.548 536.198 120.548C537.354 120.548 538.357 120.752 539.462 121.279L538.697 123.098C537.796 122.707 536.997 122.418 536.164 122.418C535.416 122.418 535.042 122.622 535.042 123.03C535.042 123.489 535.348 123.676 536.98 124.356C538.578 125.002 539.564 125.597 539.564 127.246ZM542.813 117.08C543.561 117.08 544.19 117.369 544.19 118.321C544.19 119.256 543.561 119.562 542.813 119.562C542.048 119.562 541.436 119.256 541.436 118.321C541.436 117.369 542.048 117.08 542.813 117.08ZM541.538 120.718H544.071V130H541.538V120.718ZM549.726 120.548C550.865 120.548 551.766 121.007 552.412 121.908H552.48L552.684 120.718H554.826V130.017C554.826 132.669 553.245 134.08 550.185 134.08C548.876 134.08 547.788 133.944 546.717 133.536V131.513C547.856 131.989 549.063 132.227 550.338 132.227C551.647 132.227 552.293 131.53 552.293 130.119V129.932C552.293 129.575 552.31 129.116 552.361 128.793H552.293C551.664 129.762 550.763 130.17 549.658 130.17C547.465 130.17 546.156 128.385 546.156 125.376C546.156 122.333 547.499 120.548 549.726 120.548ZM550.525 122.605C549.335 122.605 548.74 123.54 548.74 125.41C548.74 127.263 549.352 128.181 550.559 128.181C551.851 128.181 552.463 127.535 552.463 125.699V125.393C552.463 123.404 551.885 122.605 550.525 122.605ZM557.475 130V120.718H559.413L559.753 121.908H559.889C560.484 120.956 561.589 120.548 562.745 120.548C564.734 120.548 566.043 121.568 566.043 123.948V130H563.51V124.577C563.51 123.217 563.051 122.571 562.014 122.571C560.467 122.571 560.008 123.659 560.008 125.631V130H557.475ZM572.473 120.548C575.04 120.548 576.638 122.061 576.638 124.764V125.988H570.654C570.705 127.416 571.538 128.283 572.966 128.283C574.139 128.283 575.074 128.045 576.111 127.552V129.507C575.176 129.966 574.275 130.17 572.847 130.17C570.076 130.17 568.087 128.64 568.087 125.427C568.087 122.197 569.855 120.548 572.473 120.548ZM572.49 122.35C571.487 122.35 570.824 122.962 570.705 124.305H574.258C574.241 123.2 573.663 122.35 572.49 122.35ZM581.633 130.17C579.576 130.17 578.131 128.521 578.131 125.376C578.131 122.197 579.576 120.548 581.701 120.548C583.044 120.548 583.877 121.143 584.37 121.908H584.455C584.387 121.551 584.268 120.786 584.268 120.055V117.08H586.801V130H584.863L584.37 128.793H584.268C583.775 129.558 582.976 130.17 581.633 130.17ZM582.517 128.147C583.894 128.147 584.387 127.314 584.438 125.665V125.393C584.438 123.608 583.979 122.605 582.483 122.605C581.378 122.605 580.698 123.591 580.698 125.41C580.698 127.229 581.361 128.147 582.517 128.147Z" fill="black"/>
</g>
<g filter="url(#filter1_d_4686_18060)">
<rect width="96.6766" height="94.7344" rx="10" transform="matrix(0.852581 0.522595 -0.828409 0.560123 91.4785 52)" fill="#FFE7AE"/>
<path d="M53.287 77.862H56.534L61.804 86.957H61.855C61.804 85.852 61.753 84.764 61.736 83.608V77.862H64.048V90H60.784L55.497 80.82H55.429L55.582 84.288V90H53.287V77.862ZM77.1801 83.812C77.1801 87.909 74.7151 90 70.5501 90H67.1161V77.862H70.9241C74.7151 77.862 77.1801 79.936 77.1801 83.812ZM74.5111 83.88C74.5111 81.211 73.3041 79.97 71.0601 79.97H69.6831V87.875H70.7881C73.2701 87.875 74.5111 86.549 74.5111 83.88ZM80.1931 80.004L78.7141 79.324V77.862H84.2391V79.324L82.7601 80.004V87.858L84.2391 88.538V90H78.7141V88.538L80.1931 87.858V80.004ZM88.4155 80.004H85.1175V77.862H94.2805V80.004H90.9825V90H88.4155V80.004ZM99.2633 77.862H101.558L97.0363 90H94.7413L99.2633 77.862ZM103.668 80.004L102.189 79.324V77.862H107.714V79.324L106.235 80.004V87.858L107.714 88.538V90H102.189V88.538L103.668 87.858V80.004ZM116.939 86.634C116.939 88.793 115.324 90.17 112.468 90.17C111.193 90.17 110.037 89.932 109.034 89.439V87.042C110.19 87.535 111.448 88.045 112.672 88.045C113.947 88.045 114.423 87.501 114.423 86.753C114.423 85.835 113.403 85.41 112.06 84.764C110.938 84.237 109.17 83.353 109.17 81.143C109.17 78.967 110.751 77.692 113.284 77.692C114.559 77.692 115.613 77.998 116.888 78.542L116.055 80.548C114.95 80.089 114.134 79.834 113.199 79.834C112.23 79.834 111.686 80.327 111.686 81.058C111.686 81.925 112.468 82.265 113.981 82.996C115.834 83.88 116.939 84.73 116.939 86.634ZM119.145 90V77.862H126.132V79.97H121.712V82.639H125.826V84.747H121.712V87.875H126.132V90H119.145ZM138.722 83.812C138.722 87.909 136.257 90 132.092 90H128.658V77.862H132.466C136.257 77.862 138.722 79.936 138.722 83.812ZM136.053 83.88C136.053 81.211 134.846 79.97 132.602 79.97H131.225V87.875H132.33C134.812 87.875 136.053 86.549 136.053 83.88ZM73.5443 104.271L75.1593 104.22V103.812C75.1593 102.843 74.6153 102.401 73.7143 102.401C72.8133 102.401 71.9633 102.69 71.0963 103.081L70.2633 101.364C71.2323 100.871 72.5073 100.531 73.8163 100.531C76.3323 100.531 77.6753 101.568 77.6753 103.812V110H75.9073L75.4143 108.742H75.3463C74.5303 109.745 73.8333 110.17 72.2693 110.17C70.6373 110.17 69.3963 109.252 69.3963 107.229C69.3963 105.257 70.7733 104.39 73.5443 104.271ZM71.9973 107.246C71.9973 108.011 72.4903 108.317 73.2213 108.317C74.3093 108.317 75.1593 107.637 75.1593 106.464V105.699L74.1733 105.733C72.5413 105.784 71.9973 106.362 71.9973 107.246ZM86.7451 107.246C86.7451 109.133 85.4191 110.17 82.7841 110.17C81.4921 110.17 80.6591 110.017 79.7241 109.626V107.535C80.7271 107.994 81.9851 108.317 82.8691 108.317C83.8381 108.317 84.2461 107.994 84.2461 107.518C84.2461 107.042 84.0421 106.804 82.2401 106.056C80.4891 105.308 79.7071 104.713 79.7071 103.132C79.7071 101.415 81.1521 100.548 83.3791 100.548C84.5351 100.548 85.5381 100.752 86.6431 101.279L85.8781 103.098C84.9771 102.707 84.1781 102.418 83.3451 102.418C82.5971 102.418 82.2231 102.622 82.2231 103.03C82.2231 103.489 82.5291 103.676 84.1611 104.356C85.7591 105.002 86.7451 105.597 86.7451 107.246ZM95.1953 107.246C95.1953 109.133 93.8693 110.17 91.2343 110.17C89.9423 110.17 89.1093 110.017 88.1743 109.626V107.535C89.1773 107.994 90.4353 108.317 91.3193 108.317C92.2883 108.317 92.6963 107.994 92.6963 107.518C92.6963 107.042 92.4923 106.804 90.6903 106.056C88.9393 105.308 88.1573 104.713 88.1573 103.132C88.1573 101.415 89.6023 100.548 91.8293 100.548C92.9853 100.548 93.9883 100.752 95.0933 101.279L94.3283 103.098C93.4273 102.707 92.6283 102.418 91.7953 102.418C91.0473 102.418 90.6733 102.622 90.6733 103.03C90.6733 103.489 90.9793 103.676 92.6113 104.356C94.2093 105.002 95.1953 105.597 95.1953 107.246ZM100.993 100.548C103.56 100.548 105.158 102.061 105.158 104.764V105.988H99.1745C99.2255 107.416 100.058 108.283 101.486 108.283C102.659 108.283 103.594 108.045 104.631 107.552V109.507C103.696 109.966 102.795 110.17 101.367 110.17C98.5965 110.17 96.6075 108.64 96.6075 105.427C96.6075 102.197 98.3755 100.548 100.993 100.548ZM101.01 102.35C100.007 102.35 99.3445 102.962 99.2255 104.305H102.778C102.761 103.2 102.183 102.35 101.01 102.35ZM113.689 107.246C113.689 109.133 112.363 110.17 109.728 110.17C108.436 110.17 107.603 110.017 106.668 109.626V107.535C107.671 107.994 108.929 108.317 109.813 108.317C110.782 108.317 111.19 107.994 111.19 107.518C111.19 107.042 110.986 106.804 109.184 106.056C107.433 105.308 106.651 104.713 106.651 103.132C106.651 101.415 108.096 100.548 110.323 100.548C111.479 100.548 112.482 100.752 113.587 101.279L112.822 103.098C111.921 102.707 111.122 102.418 110.289 102.418C109.541 102.418 109.167 102.622 109.167 103.03C109.167 103.489 109.473 103.676 111.105 104.356C112.703 105.002 113.689 105.597 113.689 107.246ZM122.14 107.246C122.14 109.133 120.814 110.17 118.179 110.17C116.887 110.17 116.054 110.017 115.119 109.626V107.535C116.122 107.994 117.38 108.317 118.264 108.317C119.233 108.317 119.641 107.994 119.641 107.518C119.641 107.042 119.437 106.804 117.635 106.056C115.884 105.308 115.102 104.713 115.102 103.132C115.102 101.415 116.547 100.548 118.774 100.548C119.93 100.548 120.933 100.752 122.038 101.279L121.273 103.098C120.372 102.707 119.573 102.418 118.74 102.418C117.992 102.418 117.618 102.622 117.618 103.03C117.618 103.489 117.924 103.676 119.556 104.356C121.154 105.002 122.14 105.597 122.14 107.246ZM65.0445 134.08V120.718H67.1015L67.4585 121.925H67.5775C68.0705 121.177 68.8525 120.548 70.2125 120.548C72.3035 120.548 73.7145 122.197 73.7145 125.342C73.7145 128.521 72.2355 130.17 70.1445 130.17C68.8015 130.17 68.0705 129.592 67.5775 128.98H67.4415C67.5265 129.456 67.5775 129.915 67.5775 130.34V134.08H65.0445ZM67.5775 125.053V125.325C67.5775 127.11 68.0195 128.113 69.4305 128.113C70.5865 128.113 71.1305 127.144 71.1305 125.308C71.1305 123.489 70.5525 122.571 69.3965 122.571C68.0875 122.571 67.5945 123.404 67.5775 125.053ZM80.9873 120.548C81.2423 120.548 81.6333 120.565 81.8373 120.616L81.6503 122.996C81.4633 122.945 81.1233 122.911 80.9023 122.911C79.5933 122.911 78.3353 123.523 78.3353 125.274V130H75.8023V120.718H77.7233L78.0973 122.282H78.2163C78.7603 121.33 79.7463 120.548 80.9873 120.548ZM91.622 125.342C91.622 128.419 89.888 130.17 87.1 130.17C84.516 130.17 82.629 128.436 82.629 125.342C82.629 122.265 84.346 120.548 87.151 120.548C89.752 120.548 91.622 122.282 91.622 125.342ZM85.213 125.342C85.213 127.178 85.774 128.13 87.134 128.13C88.477 128.13 89.038 127.178 89.038 125.342C89.038 123.506 88.477 122.588 87.117 122.588C85.774 122.588 85.213 123.506 85.213 125.342ZM93.6134 118.321C93.6134 117.369 94.2254 117.08 94.9904 117.08C95.7384 117.08 96.3674 117.369 96.3674 118.321C96.3674 119.256 95.7384 119.562 94.9904 119.562C94.2254 119.562 93.6134 119.256 93.6134 118.321ZM92.9674 134.08C92.3724 134.08 91.7094 133.995 91.3014 133.876V131.887C91.7094 132.006 92.0324 132.04 92.4914 132.04C93.1714 132.04 93.7154 131.734 93.7154 130.629V120.718H96.2484V131.003C96.2484 132.703 95.3474 134.08 92.9674 134.08ZM102.72 120.548C105.287 120.548 106.885 122.061 106.885 124.764V125.988H100.901C100.952 127.416 101.785 128.283 103.213 128.283C104.386 128.283 105.321 128.045 106.358 127.552V129.507C105.423 129.966 104.522 130.17 103.094 130.17C100.323 130.17 98.334 128.64 98.334 125.427C98.334 122.197 100.102 120.548 102.72 120.548ZM102.737 122.35C101.734 122.35 101.071 122.962 100.952 124.305H104.505C104.488 123.2 103.91 122.35 102.737 122.35ZM112.713 130.17C109.942 130.17 108.378 128.725 108.378 125.41C108.378 122.01 110.248 120.548 112.934 120.548C114.209 120.548 115.127 120.837 115.824 121.177L115.076 123.132C114.277 122.809 113.614 122.588 112.934 122.588C111.625 122.588 110.962 123.523 110.962 125.393C110.962 127.246 111.693 128.113 112.934 128.113C114.005 128.113 114.77 127.807 115.535 127.314V129.473C114.77 129.966 114.005 130.17 112.713 130.17ZM116.736 121.551L118.13 120.701L118.861 118.746H120.476V120.718H123.077V122.622H120.476V127.093C120.476 127.79 120.918 128.147 121.581 128.147C122.142 128.147 122.652 128.045 123.179 127.858V129.745C122.635 130 121.802 130.17 120.85 130.17C119.201 130.17 117.943 129.49 117.943 127.093V122.622H116.736V121.551ZM131.519 127.246C131.519 129.133 130.193 130.17 127.558 130.17C126.266 130.17 125.433 130.017 124.498 129.626V127.535C125.501 127.994 126.759 128.317 127.643 128.317C128.612 128.317 129.02 127.994 129.02 127.518C129.02 127.042 128.816 126.804 127.014 126.056C125.263 125.308 124.481 124.713 124.481 123.132C124.481 121.415 125.926 120.548 128.153 120.548C129.309 120.548 130.312 120.752 131.417 121.279L130.652 123.098C129.751 122.707 128.952 122.418 128.119 122.418C127.371 122.418 126.997 122.622 126.997 123.03C126.997 123.489 127.303 123.676 128.935 124.356C130.533 125.002 131.519 125.597 131.519 127.246Z" fill="black"/>
</g>
<g filter="url(#filter2_d_4686_18060)">
<rect width="96.6765" height="94.7343" rx="10" transform="matrix(0.85258 0.522596 -0.828409 0.560124 1033.48 49)" fill="#FFE7AE"/>
<path d="M985.593 99V86.862H992.546V88.97H988.126V92.098H992.24V94.206H988.126V99H985.593ZM995.994 86.08C996.742 86.08 997.371 86.369 997.371 87.321C997.371 88.256 996.742 88.562 995.994 88.562C995.229 88.562 994.617 88.256 994.617 87.321C994.617 86.369 995.229 86.08 995.994 86.08ZM994.719 89.718H997.252V99H994.719V89.718ZM999.898 99V89.718H1001.84L1002.18 90.908H1002.31C1002.91 89.956 1004.01 89.548 1005.17 89.548C1007.16 89.548 1008.47 90.568 1008.47 92.948V99H1005.93V93.577C1005.93 92.217 1005.47 91.571 1004.44 91.571C1002.89 91.571 1002.43 92.659 1002.43 94.631V99H999.898ZM1014.61 93.271L1016.22 93.22V92.812C1016.22 91.843 1015.68 91.401 1014.78 91.401C1013.88 91.401 1013.03 91.69 1012.16 92.081L1011.33 90.364C1012.3 89.871 1013.57 89.531 1014.88 89.531C1017.4 89.531 1018.74 90.568 1018.74 92.812V99H1016.97L1016.48 97.742H1016.41C1015.59 98.745 1014.9 99.17 1013.33 99.17C1011.7 99.17 1010.46 98.252 1010.46 96.229C1010.46 94.257 1011.84 93.39 1014.61 93.271ZM1013.06 96.246C1013.06 97.011 1013.55 97.317 1014.28 97.317C1015.37 97.317 1016.22 96.637 1016.22 95.464V94.699L1015.24 94.733C1013.6 94.784 1013.06 95.362 1013.06 96.246ZM1023.86 86.08V99H1021.33V86.08H1023.86ZM1036.11 89.548C1036.37 89.548 1036.76 89.565 1036.96 89.616L1036.77 91.996C1036.59 91.945 1036.25 91.911 1036.03 91.911C1034.72 91.911 1033.46 92.523 1033.46 94.274V99H1030.93V89.718H1032.85L1033.22 91.282H1033.34C1033.88 90.33 1034.87 89.548 1036.11 89.548ZM1042.14 89.548C1044.71 89.548 1046.3 91.061 1046.3 93.764V94.988H1040.32C1040.37 96.416 1041.2 97.283 1042.63 97.283C1043.81 97.283 1044.74 97.045 1045.78 96.552V98.507C1044.84 98.966 1043.94 99.17 1042.51 99.17C1039.74 99.17 1037.75 97.64 1037.75 94.427C1037.75 91.197 1039.52 89.548 1042.14 89.548ZM1042.16 91.35C1041.15 91.35 1040.49 91.962 1040.37 93.305H1043.92C1043.91 92.2 1043.33 91.35 1042.16 91.35ZM1048.36 103.08V89.718H1050.42L1050.77 90.925H1050.89C1051.38 90.177 1052.17 89.548 1053.53 89.548C1055.62 89.548 1057.03 91.197 1057.03 94.342C1057.03 97.521 1055.55 99.17 1053.46 99.17C1052.12 99.17 1051.38 98.592 1050.89 97.98H1050.76C1050.84 98.456 1050.89 98.915 1050.89 99.34V103.08H1048.36ZM1050.89 94.053V94.325C1050.89 96.11 1051.33 97.113 1052.74 97.113C1053.9 97.113 1054.44 96.144 1054.44 94.308C1054.44 92.489 1053.87 91.571 1052.71 91.571C1051.4 91.571 1050.91 92.404 1050.89 94.053ZM1067.55 94.342C1067.55 97.419 1065.81 99.17 1063.03 99.17C1060.44 99.17 1058.56 97.436 1058.56 94.342C1058.56 91.265 1060.27 89.548 1063.08 89.548C1065.68 89.548 1067.55 91.282 1067.55 94.342ZM1061.14 94.342C1061.14 96.178 1061.7 97.13 1063.06 97.13C1064.4 97.13 1064.96 96.178 1064.96 94.342C1064.96 92.506 1064.4 91.588 1063.04 91.588C1061.7 91.588 1061.14 92.506 1061.14 94.342ZM1074.83 89.548C1075.08 89.548 1075.47 89.565 1075.68 89.616L1075.49 91.996C1075.3 91.945 1074.96 91.911 1074.74 91.911C1073.43 91.911 1072.17 92.523 1072.17 94.274V99H1069.64V89.718H1071.56L1071.94 91.282H1072.06C1072.6 90.33 1073.59 89.548 1074.83 89.548ZM1076.43 90.551L1077.82 89.701L1078.55 87.746H1080.17V89.718H1082.77V91.622H1080.17V96.093C1080.17 96.79 1080.61 97.147 1081.27 97.147C1081.83 97.147 1082.34 97.045 1082.87 96.858V98.745C1082.33 99 1081.49 99.17 1080.54 99.17C1078.89 99.17 1077.63 98.49 1077.63 96.093V91.622H1076.43V90.551ZM1000.67 119.17C998.616 119.17 997.171 117.521 997.171 114.376C997.171 111.197 998.616 109.548 1000.74 109.548C1002.08 109.548 1002.92 110.143 1003.41 110.908H1003.49C1003.43 110.551 1003.31 109.786 1003.31 109.055V106.08H1005.84V119H1003.9L1003.41 117.793H1003.31C1002.81 118.558 1002.02 119.17 1000.67 119.17ZM1001.56 117.147C1002.93 117.147 1003.43 116.314 1003.48 114.665V114.393C1003.48 112.608 1003.02 111.605 1001.52 111.605C1000.42 111.605 999.738 112.591 999.738 114.41C999.738 116.229 1000.4 117.147 1001.56 117.147ZM1012.31 109.548C1014.88 109.548 1016.48 111.061 1016.48 113.764V114.988H1010.5C1010.55 116.416 1011.38 117.283 1012.81 117.283C1013.98 117.283 1014.92 117.045 1015.95 116.552V118.507C1015.02 118.966 1014.12 119.17 1012.69 119.17C1009.92 119.17 1007.93 117.64 1007.93 114.427C1007.93 111.197 1009.7 109.548 1012.31 109.548ZM1012.33 111.35C1011.33 111.35 1010.67 111.962 1010.55 113.305H1014.1C1014.08 112.2 1013.5 111.35 1012.33 111.35ZM1021.07 106.08V119H1018.53V106.08H1021.07ZM1024.99 106.08C1025.74 106.08 1026.37 106.369 1026.37 107.321C1026.37 108.256 1025.74 108.562 1024.99 108.562C1024.22 108.562 1023.61 108.256 1023.61 107.321C1023.61 106.369 1024.22 106.08 1024.99 106.08ZM1023.71 109.718H1026.25V119H1023.71V109.718ZM1031.1 119L1027.57 109.718H1030.22L1032 115.005C1032.21 115.634 1032.31 116.365 1032.36 116.909H1032.43C1032.46 116.28 1032.58 115.651 1032.8 115.005L1034.59 109.718H1037.24L1033.7 119H1031.1ZM1042.4 109.548C1044.96 109.548 1046.56 111.061 1046.56 113.764V114.988H1040.58C1040.63 116.416 1041.46 117.283 1042.89 117.283C1044.06 117.283 1045 117.045 1046.03 116.552V118.507C1045.1 118.966 1044.2 119.17 1042.77 119.17C1040 119.17 1038.01 117.64 1038.01 114.427C1038.01 111.197 1039.78 109.548 1042.4 109.548ZM1042.41 111.35C1041.41 111.35 1040.75 111.962 1040.63 113.305H1044.18C1044.16 112.2 1043.59 111.35 1042.41 111.35ZM1053.8 109.548C1054.06 109.548 1054.45 109.565 1054.65 109.616L1054.46 111.996C1054.28 111.945 1053.94 111.911 1053.72 111.911C1052.41 111.911 1051.15 112.523 1051.15 114.274V119H1048.62V109.718H1050.54L1050.91 111.282H1051.03C1051.57 110.33 1052.56 109.548 1053.8 109.548ZM1059.83 109.548C1062.4 109.548 1063.99 111.061 1063.99 113.764V114.988H1058.01C1058.06 116.416 1058.89 117.283 1060.32 117.283C1061.49 117.283 1062.43 117.045 1063.47 116.552V118.507C1062.53 118.966 1061.63 119.17 1060.2 119.17C1057.43 119.17 1055.44 117.64 1055.44 114.427C1055.44 111.197 1057.21 109.548 1059.83 109.548ZM1059.85 111.35C1058.84 111.35 1058.18 111.962 1058.06 113.305H1061.61C1061.6 112.2 1061.02 111.35 1059.85 111.35ZM1068.99 119.17C1066.93 119.17 1065.49 117.521 1065.49 114.376C1065.49 111.197 1066.93 109.548 1069.06 109.548C1070.4 109.548 1071.23 110.143 1071.73 110.908H1071.81C1071.74 110.551 1071.62 109.786 1071.62 109.055V106.08H1074.16V119H1072.22L1071.73 117.793H1071.62C1071.13 118.558 1070.33 119.17 1068.99 119.17ZM1069.87 117.147C1071.25 117.147 1071.74 116.314 1071.79 114.665V114.393C1071.79 112.608 1071.33 111.605 1069.84 111.605C1068.73 111.605 1068.05 112.591 1068.05 114.41C1068.05 116.229 1068.72 117.147 1069.87 117.147Z" fill="black"/>
</g>
<defs>
<filter id="filter0_d_4686_18060" x="479.922" y="57.1641" width="159.059" height="105.258" filterUnits="userSpaceOnUse" color-interpolation-filters="sRGB">
<feFlood flood-opacity="0" result="BackgroundImageFix"/>
<feColorMatrix in="SourceAlpha" type="matrix" values="0 0 0 0 0 0 0 0 0 0 0 0 0 0 0 0 0 0 127 0" result="hardAlpha"/>
<feOffset dy="4"/>
<feGaussianBlur stdDeviation="2"/>
<feComposite in2="hardAlpha" operator="out"/>
<feColorMatrix type="matrix" values="0 0 0 0 0 0 0 0 0 0 0 0 0 0 0 0 0 0 0.25 0"/>
<feBlend mode="normal" in2="BackgroundImageFix" result="effect1_dropShadow_4686_18060"/>
<feBlend mode="normal" in="SourceGraphic" in2="effect1_dropShadow_4686_18060" result="shape"/>
</filter>
<filter id="filter1_d_4686_18060" x="13.9219" y="55.1641" width="159.059" height="105.258" filterUnits="userSpaceOnUse" color-interpolation-filters="sRGB">
<feFlood flood-opacity="0" result="BackgroundImageFix"/>
<feColorMatrix in="SourceAlpha" type="matrix" values="0 0 0 0 0 0 0 0 0 0 0 0 0 0 0 0 0 0 127 0" result="hardAlpha"/>
<feOffset dy="4"/>
<feGaussianBlur stdDeviation="2"/>
<feComposite in2="hardAlpha" operator="out"/>
<feColorMatrix type="matrix" values="0 0 0 0 0 0 0 0 0 0 0 0 0 0 0 0 0 0 0.25 0"/>
<feBlend mode="normal" in2="BackgroundImageFix" result="effect1_dropShadow_4686_18060"/>
<feBlend mode="normal" in="SourceGraphic" in2="effect1_dropShadow_4686_18060" result="shape"/>
</filter>
<filter id="filter2_d_4686_18060" x="955.922" y="52.1641" width="159.059" height="105.258" filterUnits="userSpaceOnUse" color-interpolation-filters="sRGB">
<feFlood flood-opacity="0" result="BackgroundImageFix"/>
<feColorMatrix in="SourceAlpha" type="matrix" values="0 0 0 0 0 0 0 0 0 0 0 0 0 0 0 0 0 0 127 0" result="hardAlpha"/>
<feOffset dy="4"/>
<feGaussianBlur stdDeviation="2"/>
<feComposite in2="hardAlpha" operator="out"/>
<feColorMatrix type="matrix" values="0 0 0 0 0 0 0 0 0 0 0 0 0 0 0 0 0 0 0.25 0"/>
<feBlend mode="normal" in2="BackgroundImageFix" result="effect1_dropShadow_4686_18060"/>
<feBlend mode="normal" in="SourceGraphic" in2="effect1_dropShadow_4686_18060" result="shape"/>
</filter>
</defs>
</svg>
