<?xml version="1.0" encoding="UTF-8"?><svg id="a" xmlns="http://www.w3.org/2000/svg" viewBox="0 0 658.46 205.37"><defs><style>.b,.c{fill:#fff;}.c{fill-rule:evenodd;}</style></defs><rect class="b" x="198.05" y="45.37" width="1.17" height="110.46"/><g><path class="b" d="M66.9,119.73c0-1.95-.14-2.47-1.45-2.57l-.91-.06c-.15-.12-.11-.65,.03-.66,1.58-.14,3.57-.21,6.28-.21,1.84,0,3.6,.13,4.91,.74,1.26,.55,2.22,1.61,2.22,3.29,0,1.9-1.23,2.87-2.98,3.61,0,.26,.23,.34,.56,.4,1.58,.26,3.92,1.58,3.92,4.4,0,3.06-2.51,5.11-7.77,5.11-.85,0-2.28-.08-3.51-.08s-2.28,.05-3.36,.08c-.18-.08-.23-.5-.06-.66l.53-.08c1.55-.24,1.61-.53,1.61-3.29v-10Zm2.4,3.5c0,.74,.03,.79,1.52,.74,2.98-.11,4.59-.9,4.59-3.37s-2.13-3.55-4.36-3.55c-.64,0-1.08,.05-1.34,.16-.29,.08-.41,.21-.41,.69v5.34Zm0,6.11c0,.95,.06,2.29,.61,2.87,.56,.61,1.43,.74,2.31,.74,2.6,0,4.59-1.06,4.59-3.69,0-2.08-1.17-4.5-5.82-4.5-1.58,0-1.7,.16-1.7,.69v3.9Z"/><path class="b" d="M99.78,122.32c0-2.38-.05-2.77-1.52-2.88l-.62-.04c-.15-.09-.1-.49,.05-.56,1.25,.05,2.1,.07,3.15,.07s1.85-.02,3.1-.07c.15,.07,.2,.47,.05,.56l-.62,.04c-1.47,.11-1.52,.49-1.52,2.88v8.01c0,2.38,.05,2.7,1.52,2.86l.62,.07c.15,.09,.1,.49-.05,.56-1.25-.04-2.1-.07-3.1-.07-1.05,0-1.9,.02-3.15,.07-.15-.07-.2-.43-.05-.56l.62-.07c1.47-.16,1.52-.47,1.52-2.86v-8.01Z"/><path class="b" d="M113.63,130.38c0,2.36,.05,2.7,1.4,2.81l.75,.07c.14,.09,.09,.49-.05,.56-1.33-.04-2.13-.07-3.06-.07s-1.75,.02-3.25,.07c-.14-.07-.19-.45,0-.56l.84-.07c1.33-.11,1.45-.45,1.45-2.81v-10.05c0-.7,0-.72-.7-.72h-1.29c-1.01,0-2.29,.04-2.88,.56-.56,.49-.8,.99-1.05,1.55-.19,.14-.51,.02-.61-.16,.37-1.01,.73-2.45,.89-3.35,.07-.04,.38-.07,.44,0,.14,.72,.91,.7,1.99,.7h9.47c1.26,0,1.47-.05,1.83-.63,.12-.05,.37-.02,.42,.07-.26,.92-.42,2.75-.35,3.42-.09,.18-.49,.18-.61,.04-.07-.56-.23-1.39-.58-1.64-.54-.38-1.43-.56-2.71-.56h-1.66c-.7,0-.68,.02-.68,.76v10.01Z"/><path class="b" d="M123.66,122.32c0-2.38-.05-2.77-1.52-2.88l-.62-.04c-.15-.09-.1-.49,.05-.56,1.25,.05,2.1,.07,3.15,.07s1.85-.02,3.1-.07c.15,.07,.2,.47,.05,.56l-.63,.04c-1.47,.11-1.52,.49-1.52,2.88v8.01c0,2.38,.05,2.7,1.52,2.86l.63,.07c.15,.09,.1,.49-.05,.56-1.25-.04-2.1-.07-3.1-.07-1.05,0-1.9,.02-3.15,.07-.15-.07-.2-.43-.05-.56l.62-.07c1.47-.16,1.52-.47,1.52-2.86v-8.01Z"/><path class="b" d="M134.84,134.05c-2.23,0-3.64-.59-4.14-.83-.32-.5-.66-2.09-.72-3.15,.13-.16,.53-.2,.64-.07,.4,1.15,1.49,3.35,4.57,3.35,2.23,0,3.32-1.24,3.32-2.59,0-.99-.24-2.09-2.18-3.15l-2.52-1.4c-1.33-.74-2.87-2.02-2.87-3.87,0-2.14,1.96-3.87,5.41-3.87,.82,0,1.78,.14,2.47,.29,.35,.09,.72,.14,.93,.14,.24,.54,.48,1.8,.48,2.74-.11,.13-.53,.2-.67,.07-.34-1.08-1.06-2.54-3.61-2.54s-3.16,1.46-3.16,2.5c0,1.3,1.27,2.25,2.26,2.77l2.12,1.12c1.67,.88,3.32,2.18,3.32,4.32,0,2.47-2.2,4.16-5.65,4.16Z"/><path class="b" d="M148.2,126.48c-1.16,0-1.21,.05-1.21,.72v3.17c0,2.36,.12,2.68,1.48,2.81l.7,.07c.15,.09,.1,.49-.05,.56-1.31-.04-2.13-.07-3.07-.07-1.04,0-1.86,.05-2.81,.07-.14-.07-.19-.43-.05-.56l.41-.07c1.35-.23,1.4-.45,1.4-2.81v-8.1c0-2.36-.17-2.74-1.43-2.83l-.63-.04c-.15-.09-.1-.49,.05-.56,1.19,.02,2.01,.07,3.05,.07,.94,0,1.77-.02,2.81-.07,.15,.07,.19,.47,.05,.56l-.46,.04c-1.4,.14-1.45,.47-1.45,2.83v2.59c0,.7,.05,.72,1.21,.72h6.92c1.16,0,1.21-.02,1.21-.72v-2.59c0-2.36-.05-2.7-1.48-2.83l-.46-.04c-.15-.09-.1-.49,.05-.56,1.11,.05,1.94,.07,2.93,.07s1.77-.02,2.86-.07c.15,.07,.19,.47,.05,.56l-.51,.04c-1.4,.14-1.45,.47-1.45,2.83v8.1c0,2.36,.05,2.65,1.45,2.81l.58,.07c.15,.09,.1,.49-.05,.56-1.16-.04-1.98-.07-2.93-.07-.99,0-1.86,.02-2.93,.07-.15-.07-.2-.43-.05-.56l.46-.07c1.48-.23,1.48-.45,1.48-2.81v-3.17c0-.67-.05-.72-1.21-.72h-6.92Z"/><path class="b" d="M53.05,138.76c1.99-1.55,4.52-2.31,7.36-2.31,1.47,0,3.54,.3,4.82,.65,.33,.08,.52,.14,.76,.11,.03,.62,.16,2.33,.38,3.99-.14,.19-.54,.22-.73,.05-.41-1.85-1.64-3.96-5.59-3.96-4.17,0-7.71,2.63-7.71,8.25s3.62,8.85,8.09,8.85c3.52,0,5.07-2.28,5.7-3.88,.19-.14,.6-.08,.71,.11-.19,1.41-.9,3.2-1.31,3.72-.33,.05-.65,.16-.95,.27-.6,.22-2.56,.63-4.31,.63-2.45,0-4.8-.49-6.79-1.82-2.18-1.49-3.87-3.96-3.87-7.47,0-3.02,1.36-5.59,3.43-7.2Z"/><path class="b" d="M67.95,147.54c0-4.5,3.54-7.94,8.41-7.94,5.46,0,8.19,3.76,8.19,7.71,0,4.54-3.64,7.85-8.19,7.85-5.24,0-8.41-3.58-8.41-7.63Zm14.24,.47c0-3.71-1.72-7.71-6.23-7.71-2.46,0-5.64,1.6-5.64,6.52,0,3.33,1.7,7.65,6.35,7.65,2.83,0,5.53-2.02,5.53-6.46Z"/><path class="b" d="M111.2,145.61c0-1.39-.05-3.98-.45-4.66-.17-.27-.59-.43-1.19-.47l-.6-.04c-.14-.16-.09-.45,.05-.54,.91,.04,1.79,.06,2.72,.06,1,0,1.65-.02,2.5-.06,.19,.11,.17,.4,.05,.54l-.57,.04c-.6,.05-1.05,.25-1.19,.54-.33,.74-.33,3.33-.33,4.59v2.54c0,1.96-.33,4.03-1.67,5.38-1.03,1.05-2.79,1.64-4.55,1.64-1.65,0-3.29-.29-4.46-1.24-1.26-.99-1.86-2.63-1.86-5.31v-5.31c0-2.34-.05-2.72-1.43-2.83l-.6-.04c-.14-.09-.1-.47,.05-.54,1.19,.04,2,.06,2.96,.06s1.76-.02,2.93-.06c.14,.07,.19,.45,.05,.54l-.57,.04c-1.38,.11-1.43,.5-1.43,2.83v4.86c0,3.62,1.19,6.01,4.84,6.01,3.46,0,4.77-2.56,4.77-5.98v-2.59Z"/><path class="b" d="M138.91,142.8c0-1.68-.11-2.11-1.29-2.21l-.84-.08c-.1-.09-.15-.54,.02-.56,1.42-.11,3.21-.18,5.67-.18,1.66,0,3.24,.11,4.43,.63,1.13,.48,2,1.39,2,2.84,0,1.64-1.11,2.48-2.69,3.11,0,.23,.21,.3,.5,.34,1.42,.23,3.53,1.36,3.53,3.79,0,2.63-2.27,4.41-7.01,4.41-.76,0-2.05-.07-3.16-.07s-2.05,.05-3.03,.07c-.16-.07-.21-.43-.05-.57l.48-.07c1.4-.21,1.45-.46,1.45-2.84v-8.63Zm2.16,3.02c0,.64,.03,.68,1.37,.64,2.69-.09,4.14-.77,4.14-2.91s-1.92-3.07-3.93-3.07c-.58,0-.97,.05-1.21,.14-.26,.07-.37,.18-.37,.59v4.61Zm0,5.27c0,.82,.05,1.98,.55,2.48,.5,.52,1.29,.64,2.08,.64,2.35,0,4.14-.91,4.14-3.18,0-1.79-1.05-3.88-5.24-3.88-1.42,0-1.53,.14-1.53,.59v3.36Z"/><path class="b" d="M95.97,133.25l-.62-.05c-.13-.01-.24-.03-.34-.05-.91-.16-1.28-.98-1.71-1.73l-2.16-3.76c-.37-.63-.77-1.47-1.63-1.59,2.21-.27,4.21-1.54,4.21-3.74,0-2.53-2.51-3.67-5.04-3.67-1.52,0-2.9,.04-4.45,.04-.85,0-1.87-.04-2.72-.04-.47,0-.48,.1-.48,.36,0,.39,.16,.28,.67,.31,1.8,.1,1.73,.44,1.73,1.98v9.86c0,1.41,.12,1.83-1.36,1.96,0,0-.23,.02-.35,.04l-.63,.07c-.15,.14-.1,.49,.05,.56,.33-.01,.93-.04,.93-.04,.82-.02,1.64-.09,2.46-.09s1.61,.07,2.42,.09h0c.29,0,.59,.02,.93,.03,.15-.07,.2-.43,.05-.56l-.63-.06c-.13-.01-.35-.03-.35-.03-1.5-.1-1.4-.52-1.4-1.97v-3.71c0-.22-.03-.8,.13-.96,.13-.15,.37-.12,.59-.12,2.03,0,2,.19,2.96,1.88l2.61,4.7c.21,.36,.37,.82,.91,.82h2.27c.29,0,.59,.02,.92,.03,.15-.07,.2-.43,.05-.56Zm-9.1-7.39c-.45,0-1.36,.17-1.36-.43v-4.31c0-1.69,.05-1.93,2.08-1.93,2.37,0,3.84,1.2,3.84,3.42,0,.96-.35,1.86-1.23,2.46-1.01,.7-2.11,.8-3.33,.8Z"/><g><path class="b" d="M87.36,143.39c0-2.36-.05-2.72-1.61-2.83l-.62-.05c-.15-.09-.1-.49,.05-.56,1.39,.04,2.23,.07,3.22,.07s1.81-.02,3.04-.07c.15,.07,.2,.47,.05,.56l-.59,.05c-1.46,.11-1.51,.47-1.51,2.83v7.83c0,1.42,.07,2,.52,2.43,.27,.25,.74,.52,2.7,.52,2.1,0,2.62-.09,3.02-.29,.5-.27,1.14-1.08,1.63-2.22,.15-.11,.62-.02,.62,.14,0,.25-.69,2.54-1.04,3.15-1.26-.05-3.61-.07-6.16-.07h-2.28c-1.04,0-1.83,.02-3.22,.07-.15-.07-.2-.43-.05-.56l.74-.07c1.43-.14,1.48-.45,1.48-2.81v-8.1Z"/><path class="b" d="M153.63,143.43c0-2.38-.05-2.77-1.48-2.88l-.61-.05c-.15-.09-.1-.49,.05-.56,1.21,.04,2.04,.07,3.06,.07s1.8-.02,3.01-.07c.15,.07,.19,.47,.05,.56l-.61,.05c-1.43,.11-1.48,.5-1.48,2.88v8.01c0,2.38,.05,2.7,1.48,2.86l.61,.07c.15,.09,.1,.49-.05,.56-1.21-.05-2.04-.07-3.01-.07-1.02,0-1.85,.02-3.06,.07-.15-.07-.2-.43-.05-.56l.61-.07c1.43-.16,1.48-.47,1.48-2.86v-8.01Z"/><path class="b" d="M134.22,154.29c-.13-.01-.36-.03-.36-.03-.26-.02-.49-.06-.67-.26-.32-.33-.29-1.29-.29-1.67v-9.86c0-.43-.11-1.36,.21-1.69,.16-.18,.49-.21,.78-.22h0c.18-.01,.18-.01,.34-.02l.62-.04c.15-.09,.1-.5-.05-.56-.33,.01-.64,0-.92,.02h-2.66c-.29,0-.55,0-.71,.31l-5.41,11.26-4.78-10.88c-.16-.38-.18-.69-.68-.69h-2.76c-.29,0-.61,0-.94-.02-.15,.07-.2,.47-.05,.56l.63,.04c.13,.01,.36,.03,.36,.03,1.03,.07,1.1,.3,1.01,1.39l-.81,10.57c-.07,1.06-.13,1.62-1.24,1.73,0,0-.24,.03-.37,.04l-.62,.07c-.15,.13-.1,.49,.05,.56,.33-.01,.91-.03,.91-.03,.56-.03,1.14-.08,1.71-.08,.62,0,1.24,.06,1.86,.08h0c.29,.01,.59,.02,.92,.03,.15-.07,.2-.43,.05-.56l-.63-.07c-.16-.01-.35-.03-.35-.03-1.6-.11-1.57-1.24-1.47-2.63l.76-9.83h.18l5.17,12.1c.05,.17,.13,.45,.39,.45,.24,0,.32-.26,.39-.43l5.83-12.41h.19v10.81c0,.43,.05,1.31-.39,1.65-.23,.17-.99,.28-.99,.28-.1,.02-.21,.03-.34,.04l-.62,.07c-.15,.13-.1,.49,.05,.56,.33-.01,.91-.03,.91-.03,.85-.02,1.7-.09,2.57-.09,.62,0,1.83,.06,1.83,.06,.29,0,.62,.04,.95,.05,.15-.07,.2-.43,.05-.56l-.62-.07Z"/><path class="b" d="M174.78,154.35l-.08-.07c-.13-.01-.23-.03-.34-.05-.97-.22-1.35-1.39-1.71-2.22l-5.01-11.85c-.05-.14-.15-.45-.35-.45-.27,0-.35,.33-.42,.52l-4.78,11.82c-.17,.45-.62,1.54-.94,1.86-.25,.25-.57,.3-.91,.34,0,0-.27,.03-.4,.04l-.59,.06c-.15,.13-.1,.49,.05,.56,.33-.01,.92-.03,.92-.03,.66,0,1.31-.09,1.97-.09,.55,0,1.1,.06,1.65,.08,0,0,.59,.02,.92,.03,.15-.07,.2-.43,.05-.56l-.62-.07c-.13-.01-.34-.03-.34-.03-.58-.06-1.29-.17-1.29-.8,0-.43,.2-.92,.35-1.3l.74-1.77c.37-.85,.23-.94,1.21-.94h3.37c1.19,0,1.02,0,1.54,1.21l.79,1.79c.13,.31,.35,.82,.35,1.16,0,.59-.65,.63-1.25,.68,0,0-.2,.02-.38,.03l-.6,.04c-.15,.14-.1,.49,.05,.56,.33-.01,.93-.04,.93-.04,.71-.03,1.41-.08,2.09-.08,.87,0,1.74,.06,2.6,.08h0c.28,0,.04,.02,.37,.03,.15-.07,.2-.43,.05-.56Zm-6.56-5.57h-2.92c-.1,0-.91,.1-.91-.14,0-.07,.05-.21,.08-.28l1.75-4.34c.05-.12,.23-.71,.43-.71,.15,0,.36,.62,.41,.71l1.73,4.05s.18,.43,.18,.52c0,.26-.58,.19-.74,.19Z"/></g><g><path class="c" d="M101.26,74.09l-10.21-20.35,.61-.27,8.44,16.18-7.1-16.77,.63-.28,8.16,18.35-6.88-18.87,.65-.24,6.54,16.99-5.16-17.5,.62-.23,6.8,21.71v.06h0c.45-.16,.91-.29,1.37-.42-.52-10.43-2.06-19.35-2.06-19.35,0,0,1.91,8.84,5.33,18.7,.48-.06,.96-.11,1.44-.14l-.02-.02h.06l-.03-.05-1.83-22.67,.66-.02,1.77,18.16-.3-18.21,.69-.02,.69,20.08,.69-20.08,.69,.02-.31,18.21,1.77-18.16,.66,.02-1.83,22.67-.04,.05h.04c.47,.04,.94,.08,1.41,.14,3.42-9.85,5.33-18.67,5.33-18.67,0,0-1.54,8.89-2.06,19.3,.47,.12,.93,.26,1.38,.41l6.77-21.63,.62,.23-5.16,17.5,6.54-16.99,.65,.24-6.88,18.87,8.16-18.36,.63,.28-7.1,16.77,8.44-16.18,.61,.27-10.15,20.26h.02c.42,.21,.83,.43,1.23,.65,6.87-7.86,11.95-15.34,11.95-15.34,0,0-4.77,7.69-9.16,17.16,.39,.3,.77,.6,1.15,.92l14.37-17.5,.49,.44-11.35,14.29,12.43-13.31,.51,.46-13.45,14.92,14.45-13.96,.48,.5-12.86,12.88,13.89-11.84,.46,.47-17,14.98h0c.3,.34,.58,.68,.86,1.03,9.33-4.72,16.87-9.77,16.87-9.77,0,0-7.33,5.36-14.96,12.52,.21,.35,.55,.94,.74,1.3l19.89-10.83,.29,.6-15.87,9,16.51-7.68,.3,.62-15.38,7.49,.3,.1,15.64-6.33,.26,.64-14.54,6.19,.27,.11,9.69-3.23,1.46-1.02,.49,.37,3.19-1.06,.25,.61-2.76,.97,3.99,3.04-5.34-2.98-7.76,5.44-5.22-2.03c-1.77,.89-12.67,8.19-12.67,8.19l-4.18-3.03-4.49-.89-5.99-4.36-6.87,4.72s-7.66,4.45-7.93,4.45-9.25-7.12-9.25-7.12l-4.14-4.36c-.7,.45-3.52,1.74-3.52,1.74l-.14,.04-2.72-.84-3.31-1.76-9.11,4.12,6.72-3.77-5-1.76,.25-.61,5.63,1.88h.02l.74-.43,.3-.19-6.14-2.61,.26-.64,13.71,5.54,.45-.19-13.59-6.62,.3-.62,14.4,6.7,.2-.1-13.97-7.92,.29-.59,20.17,10.97c.17-.31,.51-.86,.69-1.16-7.67-7.21-15.07-12.62-15.07-12.62,0,0,7.61,5.1,17,9.83,.31-.39,.56-.7,.9-1.07l-17.21-15.15,.46-.47,13.89,11.84-12.87-12.88,.48-.5,14.45,13.96-13.45-14.92,.51-.46,12.43,13.31-11.34-14.29,.49-.44,14.54,17.69c.38-.32,.69-.57,1.08-.87-4.4-9.52-9.2-17.26-9.2-17.26,0,0,5.11,7.52,12.01,15.41,.42-.24,.8-.5,1.24-.71h0Zm41.83,11.27l1.9,.79,4.22-2.94-6.12,2.15Z"/><path class="b" d="M62.89,93.27c.17-2.62,.53-5.19,1.1-7.57,2.73-11.55,8.97-21.37,18.04-28.4,8.61-6.67,19.35-10.34,30.25-10.34s20.93,3.57,29.53,10.04c4.39,3.3,8.17,7.26,11.24,11.77,3.22,4.73,5.59,9.97,7.04,15.57v.02c.95,3.94,1.48,8.26,1.48,12.17,0,3.16-.44,6.13-.82,8.36l-.08,.4-.61,.45-.39,.28h0l-.59,.39,.07-.04c-6.57,4.32-13.25,5.77-22.58,6.8-9.81,1.09-16.69-.5-25.4-2.51l-8.2-1.88c-7.2-1.66-12.4-2.87-20.04-3.83-4.48-.56-10.21-.26-17.01,.9h.03l-.7,.15-.38,.08-.99,.21-.19-.99c-.63-3.33-.9-5.99-.9-8.89,0-1.03,.04-2.06,.1-3.08v-.06Zm.96,.5c-.05,.83-.08,1.72-.08,2.64,0,3.12,.32,5.75,.88,8.71h0c.43-.09,.61-.13,1.09-.23h0c4.39-.76,11.35-1.67,17.3-.92,9.45,1.2,15.35,2.79,25.32,5.04,9.97,2.26,17.32,4.38,28.08,3.18,9.42-1.04,15.87-2.51,22.15-6.65h0s.5-.33,.5-.33c.11-.08,.54-.4,.67-.49,.46-2.69,.81-5.37,.81-8.2h0c0-3.79-.51-7.88-1.33-11.46h0c-.51-2.03-1.28-4.51-2.03-6.42-7.21-18.28-25.39-30.74-45.09-30.74-23.09,0-42.4,16.22-47.14,37.89h0s-.03,.15-.05,.27h0c-.3,1.41-.78,3.74-1.01,6.8l-.06,.91Z"/></g></g><g><path class="b" d="M248.53,154.15c-1.52,.73-5.12,1.63-9.68,1.63-13.11,0-19.86-8.21-19.86-19.02,0-12.88,9.23-20.03,20.7-20.03,4.44,0,7.82,.9,9.34,1.63l-1.8,6.81c-1.69-.73-4.11-1.41-7.2-1.41-6.75,0-12.04,4.11-12.04,12.55,0,7.54,4.5,12.32,12.1,12.32,2.64,0,5.46-.51,7.2-1.24l1.24,6.75Z"/><path class="b" d="M264.11,155.84c-8.04,0-14.23-5.29-14.23-14.18s5.85-14.57,14.74-14.57c8.38,0,14.01,5.79,14.01,14.12,0,10.01-7.14,14.63-14.46,14.63h-.06Zm.23-6.13c3.38,0,5.46-3.32,5.46-8.27,0-4.05-1.58-8.21-5.46-8.21s-5.63,4.16-5.63,8.27c0,4.67,1.97,8.21,5.57,8.21h.06Z"/><path class="b" d="M282.5,136.48c0-3.43-.11-6.3-.22-8.78h7.26l.34,3.77h.17c1.18-1.8,3.66-4.39,8.33-4.39,3.6,0,6.36,1.86,7.54,4.73h.11c1.07-1.46,2.25-2.59,3.6-3.38,1.52-.84,3.21-1.35,5.23-1.35,5.29,0,9.28,3.71,9.28,11.93v16.2h-8.33v-14.91c0-3.99-1.29-6.3-4.05-6.3-2.03,0-3.38,1.35-3.99,2.98-.17,.62-.28,1.46-.28,2.14v16.09h-8.33v-15.42c0-3.43-1.24-5.79-4-5.79-2.19,0-3.49,1.69-3.99,3.04-.28,.68-.34,1.46-.34,2.19v15.98h-8.33v-18.73Z"/><path class="b" d="M329.47,136.48c0-3.43-.11-6.3-.22-8.78h7.26l.34,3.77h.17c1.18-1.8,3.66-4.39,8.33-4.39,3.6,0,6.36,1.86,7.54,4.73h.11c1.07-1.46,2.25-2.59,3.6-3.38,1.52-.84,3.21-1.35,5.23-1.35,5.29,0,9.28,3.71,9.28,11.93v16.2h-8.33v-14.91c0-3.99-1.29-6.3-4.05-6.3-2.03,0-3.38,1.35-3.99,2.98-.17,.62-.28,1.46-.28,2.14v16.09h-8.33v-15.42c0-3.43-1.24-5.79-4-5.79-2.19,0-3.49,1.69-3.99,3.04-.28,.68-.34,1.46-.34,2.19v15.98h-8.33v-18.73Z"/><path class="b" d="M402.38,146.38c0,3.6,.11,6.53,.23,8.83h-7.43l-.39-3.88h-.17c-1.07,1.69-3.66,4.5-8.61,4.5-5.63,0-9.68-3.49-9.68-11.98v-16.15h8.55v14.8c0,3.99,1.29,6.41,4.33,6.41,2.36,0,3.77-1.63,4.28-2.98,.22-.51,.34-1.12,.34-1.86v-16.37h8.55v18.68Z"/><path class="b" d="M407.83,136.48c0-3.43-.11-6.3-.22-8.78h7.43l.39,3.83h.17c1.12-1.8,3.88-4.44,8.5-4.44,5.63,0,9.85,3.77,9.85,11.87v16.26h-8.55v-15.25c0-3.54-1.24-5.96-4.33-5.96-2.36,0-3.77,1.63-4.39,3.21-.23,.56-.28,1.35-.28,2.14v15.87h-8.55v-18.73Z"/><path class="b" d="M443.61,124.33c-2.7,0-4.44-1.91-4.44-4.28s1.8-4.28,4.56-4.28,4.44,1.86,4.5,4.28c0,2.36-1.74,4.28-4.56,4.28h-.06Zm-4.22,30.89v-27.51h8.55v27.51h-8.55Z"/><path class="b" d="M462.96,120.22v7.48h6.13v6.3h-6.13v9.96c0,3.32,.84,4.84,3.38,4.84,1.18,0,1.74-.06,2.53-.23l.06,6.47c-1.07,.39-3.15,.73-5.51,.73-2.76,0-5.06-.96-6.47-2.36-1.58-1.63-2.36-4.28-2.36-8.16v-11.25h-3.66v-6.3h3.66v-5.18l8.38-2.31Z"/><path class="b" d="M476.85,124.33c-2.7,0-4.44-1.91-4.44-4.28s1.8-4.28,4.56-4.28,4.44,1.86,4.5,4.28c0,2.36-1.74,4.28-4.56,4.28h-.06Zm-4.22,30.89v-27.51h8.55v27.51h-8.55Z"/><path class="b" d="M493.22,144.19c.28,3.54,3.77,5.23,7.76,5.23,2.92,0,5.29-.39,7.59-1.18l1.12,5.79c-2.81,1.18-6.25,1.74-9.96,1.74-9.34,0-14.68-5.4-14.68-14.01,0-6.98,4.39-14.68,13.9-14.68,8.89,0,12.26,6.92,12.26,13.73,0,1.46-.17,2.76-.28,3.38h-17.72Zm10.07-5.85c0-2.08-.9-5.57-4.78-5.57-3.66,0-5.12,3.32-5.34,5.57h10.13Z"/><path class="b" d="M514.88,147.73c1.58,.96,4.84,2.03,7.37,2.03s3.66-.84,3.66-2.25-.84-2.14-3.99-3.15c-5.74-1.91-7.93-5.01-7.88-8.21,0-5.18,4.39-9.06,11.2-9.06,3.21,0,6.02,.79,7.71,1.63l-1.46,5.85c-1.24-.62-3.66-1.52-5.96-1.52-2.08,0-3.26,.84-3.26,2.19s1.07,2.03,4.45,3.15c5.23,1.8,7.37,4.44,7.43,8.44,0,5.18-3.99,8.95-11.87,8.95-3.6,0-6.81-.84-8.89-1.97l1.52-6.08Z"/><path class="b" d="M548.18,117.86c2.25-.45,6.75-.84,11.08-.84,5.23,0,8.44,.51,11.2,2.14,2.64,1.41,4.5,3.99,4.5,7.48s-1.97,6.41-6.19,8.04v.11c4.33,1.12,7.54,4.44,7.54,9.34,0,3.49-1.58,6.19-3.94,8.04-2.76,2.19-7.37,3.43-14.91,3.43-4.22,0-7.37-.28-9.28-.56v-37.19Zm8.5,14.46h2.81c4.56,0,6.92-1.86,6.92-4.67s-2.19-4.39-6.08-4.39c-1.91,0-2.98,.11-3.66,.28v8.78Zm0,16.82c.84,.17,1.86,.17,3.32,.17,3.88,0,7.31-1.52,7.31-5.51s-3.43-5.34-7.71-5.34h-2.93v10.69Z"/><path class="b" d="M608.54,154.15c-1.52,.73-5.12,1.63-9.68,1.63-13.11,0-19.86-8.21-19.86-19.02,0-12.88,9.23-20.03,20.7-20.03,4.44,0,7.82,.9,9.34,1.63l-1.8,6.81c-1.69-.73-4.11-1.41-7.2-1.41-6.75,0-12.04,4.11-12.04,12.55,0,7.54,4.5,12.32,12.1,12.32,2.64,0,5.46-.51,7.2-1.24l1.24,6.75Z"/><g><path class="b" d="M248.53,99.09c-1.52,.73-5.12,1.63-9.68,1.63-13.11,0-19.86-8.21-19.86-19.02,0-12.88,9.23-20.03,20.7-20.03,4.44,0,7.82,.9,9.34,1.63l-1.8,6.81c-1.69-.73-4.11-1.41-7.2-1.41-6.75,0-12.04,4.11-12.04,12.55,0,7.54,4.5,12.32,12.1,12.32,2.64,0,5.46-.51,7.2-1.24l1.24,6.75Z"/><path class="b" d="M264.11,100.78c-8.04,0-14.23-5.29-14.23-14.18s5.85-14.57,14.74-14.57c8.38,0,14.01,5.79,14.01,14.12,0,10.01-7.14,14.63-14.46,14.63h-.06Zm.23-6.13c3.38,0,5.46-3.32,5.46-8.27,0-4.05-1.58-8.21-5.46-8.21s-5.63,4.16-5.63,8.27c0,4.67,1.97,8.21,5.57,8.21h.06Z"/><path class="b" d="M282.5,81.43c0-3.43-.11-6.3-.22-8.78h7.43l.39,3.83h.17c1.12-1.8,3.88-4.44,8.5-4.44,5.63,0,9.85,3.77,9.85,11.87v16.26h-8.55v-15.25c0-3.54-1.24-5.96-4.33-5.96-2.36,0-3.77,1.63-4.39,3.21-.23,.56-.28,1.35-.28,2.14v15.87h-8.55v-18.73Z"/><path class="b" d="M314.06,81.43c0-3.43-.11-6.3-.22-8.78h7.43l.39,3.83h.17c1.12-1.8,3.88-4.44,8.5-4.44,5.63,0,9.85,3.77,9.85,11.87v16.26h-8.55v-15.25c0-3.54-1.24-5.96-4.33-5.96-2.36,0-3.77,1.63-4.39,3.21-.23,.56-.28,1.35-.28,2.14v15.87h-8.55v-18.73Z"/><path class="b" d="M352.2,89.14c.28,3.54,3.77,5.23,7.76,5.23,2.92,0,5.29-.39,7.59-1.18l1.12,5.79c-2.81,1.18-6.25,1.74-9.96,1.74-9.34,0-14.68-5.4-14.68-14.01,0-6.98,4.39-14.68,13.9-14.68,8.89,0,12.26,6.92,12.26,13.73,0,1.46-.17,2.76-.28,3.38h-17.72Zm10.07-5.85c0-2.08-.9-5.57-4.78-5.57-3.66,0-5.12,3.32-5.34,5.57h10.13Z"/><path class="b" d="M394.56,99.43c-1.52,.73-4.39,1.29-7.65,1.29-8.89,0-14.57-5.46-14.57-14.06,0-7.99,5.51-14.57,15.75-14.57,2.25,0,4.73,.39,6.53,1.07l-1.35,6.36c-1.01-.45-2.53-.84-4.78-.84-4.5,0-7.43,3.21-7.37,7.65,0,5.06,3.38,7.71,7.54,7.71,2.03,0,3.6-.34,4.89-.9l1.01,6.3Z"/><path class="b" d="M408.34,65.17v7.48h6.13v6.3h-6.13v9.96c0,3.32,.84,4.84,3.38,4.84,1.18,0,1.74-.06,2.53-.23l.06,6.47c-1.07,.39-3.15,.73-5.51,.73-2.76,0-5.06-.96-6.47-2.36-1.58-1.63-2.36-4.28-2.36-8.16v-11.25h-3.66v-6.3h3.66v-5.18l8.38-2.31Z"/><path class="b" d="M422.23,69.28c-2.7,0-4.44-1.91-4.44-4.28s1.8-4.28,4.56-4.28,4.44,1.86,4.5,4.28c0,2.36-1.74,4.28-4.56,4.28h-.06Zm-4.22,30.89v-27.51h8.55v27.51h-8.55Z"/><path class="b" d="M432.02,81.43c0-3.43-.11-6.3-.22-8.78h7.43l.39,3.83h.17c1.12-1.8,3.88-4.44,8.5-4.44,5.63,0,9.85,3.77,9.85,11.87v16.26h-8.55v-15.25c0-3.54-1.24-5.96-4.33-5.96-2.36,0-3.77,1.63-4.39,3.21-.23,.56-.28,1.35-.28,2.14v15.87h-8.55v-18.73Z"/><path class="b" d="M489.63,96.17c0,5.29-1.07,9.62-4.22,12.38-2.98,2.59-7.09,3.38-11.14,3.38-3.66,0-7.43-.73-9.9-2.08l1.69-6.53c1.74,1.01,4.73,2.08,7.99,2.08,4.05,0,7.14-2.14,7.14-7.26v-1.74h-.11c-1.63,2.25-4.28,3.54-7.43,3.54-6.81,0-11.65-5.51-11.65-13.39,0-8.89,5.68-14.51,12.49-14.51,3.77,0,6.13,1.63,7.54,3.94h.11l.28-3.32h7.43c-.11,1.8-.23,4.11-.23,8.21v15.3Zm-8.55-12.32c0-.51-.06-1.07-.17-1.58-.62-2.25-2.25-3.77-4.61-3.77-3.15,0-5.63,2.81-5.63,7.82,0,4.11,2.03,7.31,5.57,7.31,2.25,0,4-1.46,4.56-3.43,.22-.67,.28-1.58,.28-2.31v-4.05Z"/></g></g></svg>