<?xml version="1.0" encoding="UTF-8"?><svg id="a" xmlns="http://www.w3.org/2000/svg" viewBox="0 0 658.46 205.37"><defs><style>.b{fill:#fff;}.c{fill:#a7a9ac;}.d{fill:#939598;}.e{fill:#231f20;}</style></defs><rect class="c" x="198.05" y="45.37" width="1.17" height="110.46"/><g><path class="b" d="M163,82.81c-6.09-23.47-27.31-38.05-48.65-38.05s-43.35,14.93-49.15,39.44c-.81,3.42-1.22,7.23-1.22,10.88,0,3.24,.33,5.97,.91,9.04h0c.45-.09,.63-.14,1.13-.24h0c4.57-.79,11.79-1.73,17.97-.95,9.81,1.24,15.94,2.89,26.3,5.23,10.35,2.34,17.99,4.55,29.16,3.31,9.78-1.09,16.48-2.61,23-6.9h0s.52-.34,.52-.34c.11-.08,.56-.41,.7-.51,.48-2.8,.84-5.58,.84-8.51h0c0-4.11-.58-8.57-1.5-12.39"/><path class="e" d="M67.43,118.64c0-2.01-.12-2.53-1.48-2.63l-.96-.08c-.24-.16-.21-.57,.03-.68,1.63-.14,3.67-.22,6.48-.22,1.9,0,3.7,.13,5.06,.76,1.3,.57,2.29,1.66,2.29,3.4,0,1.95-1.27,2.96-3.07,3.72,0,.27,.24,.35,.57,.41,1.63,.27,4.04,1.63,4.04,4.53,0,3.15-2.59,5.27-8.01,5.27-.87,0-2.35-.08-3.62-.08s-2.35,.06-3.46,.08c-.18-.08-.24-.51-.06-.68l.54-.08c1.6-.25,1.66-.54,1.66-3.39v-10.31Zm2.47,3.61c0,.76,.03,.81,1.57,.76,3.07-.11,4.73-.92,4.73-3.47s-2.2-3.66-4.49-3.66c-.66,0-1.11,.05-1.39,.16-.3,.08-.42,.22-.42,.71v5.51Zm0,6.29c0,.98,.06,2.36,.63,2.96,.57,.62,1.48,.76,2.38,.76,2.68,0,4.73-1.08,4.73-3.8,0-2.14-1.2-4.64-6-4.64-1.63,0-1.75,.16-1.75,.71v4.02Z"/><path class="e" d="M101.33,121.31c0-2.46-.05-2.85-1.57-2.97l-.64-.05c-.16-.09-.1-.51,.05-.58,1.29,.05,2.16,.07,3.24,.07s1.91-.02,3.19-.07c.15,.07,.21,.49,.05,.58l-.64,.05c-1.52,.11-1.57,.51-1.57,2.97v8.25c0,2.46,.05,2.78,1.57,2.95l.64,.07c.16,.09,.1,.51-.05,.58-1.29-.05-2.16-.07-3.19-.07s-1.96,.02-3.24,.07c-.15-.07-.21-.44-.05-.58l.64-.07c1.52-.16,1.57-.49,1.57-2.95v-8.25Z"/><path class="e" d="M115.6,129.61c0,2.43,.05,2.78,1.45,2.9l.77,.07c.14,.09,.1,.51-.05,.58-1.37-.05-2.19-.07-3.16-.07s-1.81,.02-3.35,.07c-.14-.07-.19-.46,0-.58l.87-.07c1.37-.12,1.49-.46,1.49-2.9v-10.36c0-.72,0-.74-.72-.74h-1.33c-1.04,0-2.36,.05-2.96,.58-.58,.51-.82,1.02-1.08,1.6-.19,.14-.53,.02-.63-.16,.39-1.04,.75-2.53,.92-3.45,.07-.05,.39-.07,.46,0,.14,.74,.94,.72,2.05,.72h9.76c1.3,0,1.52-.05,1.88-.65,.12-.05,.39-.02,.43,.07-.27,.95-.43,2.83-.36,3.53-.1,.19-.51,.19-.63,.05-.07-.58-.24-1.44-.6-1.69-.55-.4-1.47-.58-2.8-.58h-1.71c-.72,0-.7,.02-.7,.79v10.32Z"/><path class="e" d="M125.93,121.31c0-2.46-.05-2.85-1.57-2.97l-.65-.05c-.15-.09-.1-.51,.05-.58,1.29,.05,2.16,.07,3.24,.07s1.9-.02,3.19-.07c.15,.07,.21,.49,.05,.58l-.64,.05c-1.52,.11-1.57,.51-1.57,2.97v8.25c0,2.46,.05,2.78,1.57,2.95l.64,.07c.16,.09,.1,.51-.05,.58-1.29-.05-2.16-.07-3.19-.07-1.08,0-1.96,.02-3.24,.07-.16-.07-.21-.44-.05-.58l.65-.07c1.52-.16,1.57-.49,1.57-2.95v-8.25Z"/><path class="e" d="M137.47,133.39c-2.3,0-3.75-.6-4.27-.86-.33-.51-.68-2.16-.74-3.25,.13-.16,.55-.21,.66-.07,.41,1.18,1.53,3.45,4.71,3.45,2.3,0,3.42-1.28,3.42-2.67,0-1.02-.25-2.15-2.24-3.24l-2.6-1.44c-1.37-.77-2.95-2.09-2.95-3.99,0-2.2,2.02-3.99,5.58-3.99,.85,0,1.83,.14,2.54,.3,.36,.09,.74,.14,.96,.14,.25,.56,.5,1.86,.5,2.83-.11,.14-.55,.21-.69,.07-.35-1.11-1.09-2.62-3.72-2.62s-3.26,1.51-3.26,2.57c0,1.34,1.31,2.32,2.33,2.85l2.19,1.16c1.72,.9,3.42,2.25,3.42,4.45,0,2.55-2.27,4.29-5.83,4.29Z"/><path class="e" d="M151.24,125.6c-1.2,0-1.25,.04-1.25,.74v3.27c0,2.43,.13,2.76,1.52,2.9l.72,.07c.15,.09,.1,.51-.05,.58-1.35-.05-2.2-.07-3.17-.07-1.07,0-1.92,.05-2.89,.07-.15-.07-.2-.44-.05-.58l.42-.07c1.4-.23,1.45-.46,1.45-2.9v-8.35c0-2.43-.18-2.83-1.47-2.92l-.65-.05c-.15-.09-.1-.51,.05-.58,1.22,.02,2.07,.07,3.14,.07,.97,0,1.82-.02,2.89-.07,.15,.07,.2,.49,.05,.58l-.47,.05c-1.45,.14-1.5,.48-1.5,2.92v2.67c0,.72,.05,.74,1.25,.74h7.13c1.2,0,1.25-.02,1.25-.74v-2.67c0-2.43-.05-2.78-1.52-2.92l-.47-.05c-.15-.09-.1-.51,.05-.58,1.15,.05,1.99,.07,3.02,.07s1.82-.02,2.95-.07c.15,.07,.2,.49,.05,.58l-.52,.05c-1.45,.14-1.5,.48-1.5,2.92v8.35c0,2.43,.05,2.74,1.5,2.9l.6,.07c.15,.09,.1,.51-.05,.58-1.2-.05-2.05-.07-3.02-.07-1.02,0-1.92,.02-3.02,.07-.15-.07-.2-.44-.05-.58l.47-.07c1.52-.23,1.52-.46,1.52-2.9v-3.27c0-.7-.05-.74-1.25-.74h-7.13Z"/><path class="e" d="M53.16,138.25c2.05-1.6,4.66-2.38,7.58-2.38,1.52,0,3.65,.31,4.97,.67,.34,.08,.53,.14,.79,.11,.03,.64,.17,2.41,.39,4.11-.14,.2-.56,.23-.76,.06-.42-1.9-1.69-4.08-5.76-4.08-4.3,0-7.95,2.71-7.95,8.51s3.73,9.12,8.34,9.12c3.62,0,5.22-2.35,5.87-4,.2-.14,.62-.08,.73,.11-.2,1.46-.93,3.3-1.35,3.84-.34,.06-.67,.17-.98,.28-.62,.22-2.64,.65-4.44,.65-2.53,0-4.94-.51-6.99-1.88-2.25-1.54-3.99-4.09-3.99-7.7,0-3.1,1.4-5.77,3.54-7.42Z"/><path class="e" d="M68.52,147.3c0-4.64,3.65-8.18,8.67-8.18,5.62,0,8.45,3.87,8.45,7.95,0,4.68-3.75,8.09-8.45,8.09-5.4,0-8.67-3.69-8.67-7.86Zm14.68,.49c0-3.83-1.78-7.95-6.43-7.95-2.53,0-5.82,1.65-5.82,6.72,0,3.43,1.75,7.88,6.55,7.88,2.92,0,5.7-2.09,5.7-6.65Z"/><path class="e" d="M113.09,145.31c0-1.44-.05-4.1-.47-4.8-.17-.28-.61-.44-1.23-.49l-.62-.04c-.15-.16-.1-.46,.05-.56,.93,.05,1.84,.07,2.8,.07,1.03,0,1.7-.02,2.58-.07,.2,.11,.17,.42,.05,.56l-.59,.04c-.61,.05-1.08,.26-1.23,.56-.34,.77-.34,3.43-.34,4.73v2.62c0,2.02-.35,4.15-1.72,5.54-1.06,1.09-2.88,1.69-4.69,1.69-1.7,0-3.39-.3-4.6-1.27-1.3-1.02-1.92-2.71-1.92-5.47v-5.47c0-2.41-.05-2.81-1.47-2.92l-.62-.04c-.15-.09-.1-.49,.05-.56,1.23,.05,2.06,.07,3.04,.07s1.82-.02,3.02-.07c.15,.07,.2,.46,.05,.56l-.59,.04c-1.43,.12-1.47,.51-1.47,2.92v5.01c0,3.73,1.23,6.19,4.99,6.19,3.56,0,4.91-2.64,4.91-6.17v-2.67Z"/><path class="e" d="M141.63,142.51c0-1.72-.11-2.16-1.32-2.25l-.86-.07c-.22-.14-.19-.49,.03-.58,1.45-.12,3.28-.18,5.78-.18,1.7,0,3.31,.11,4.52,.65,1.16,.49,2.04,1.42,2.04,2.9,0,1.67-1.13,2.53-2.74,3.18,0,.23,.21,.3,.51,.35,1.45,.23,3.6,1.39,3.6,3.87,0,2.69-2.31,4.5-7.15,4.5-.78,0-2.1-.07-3.23-.07s-2.1,.05-3.09,.07c-.16-.07-.22-.44-.05-.58l.48-.07c1.42-.21,1.48-.46,1.48-2.9v-8.81Zm2.21,3.08c0,.65,.03,.69,1.4,.65,2.74-.09,4.22-.79,4.22-2.97s-1.96-3.13-4.01-3.13c-.59,0-.99,.05-1.24,.14-.27,.07-.38,.19-.38,.6v4.71Zm0,5.38c0,.84,.05,2.02,.56,2.53,.51,.53,1.32,.65,2.12,.65,2.39,0,4.22-.93,4.22-3.25,0-1.83-1.08-3.97-5.35-3.97-1.45,0-1.56,.14-1.56,.6v3.43Z"/><path class="e" d="M97.39,132.58l-.64-.06c-.13-.01-.25-.03-.35-.05-.94-.16-1.32-1-1.76-1.78l-2.23-3.87c-.39-.65-.8-1.52-1.68-1.64,2.28-.28,4.34-1.59,4.34-3.85,0-2.61-2.58-3.78-5.19-3.78-1.56,0-3.1,.1-4.7,.1-.88,0-1.81-.1-2.69-.1-.49,0-.49,.1-.49,.38,0,.4,.17,.3,.69,.3,1.92,0,1.79,.47,1.79,2.06v10.16c0,1.45,.13,1.89-1.4,2.02,0,0-.23,.02-.37,.04l-.65,.07c-.15,.14-.11,.51,.05,.58,.34-.01,.95-.04,.95-.04,.85-.03,1.69-.09,2.53-.09s1.66,.06,2.5,.09h0c.29,0,.61,.02,.95,.03,.15-.07,.21-.44,.05-.58l-.65-.06c-.13-.02-.36-.04-.36-.04-1.54-.1-1.45-.54-1.45-2.03v-3.83c0-.22-.03-.82,.14-.99,.14-.15,.38-.13,.61-.13,2.09,0,2.06,.2,3.05,1.94l2.69,4.84c.22,.37,.39,.84,.94,.84h2.34c.29,.01,.6,.02,.94,.03,.15-.07,.21-.44,.05-.58Zm-9.38-7.62c-.47,0-1.4,.18-1.4-.45v-4.45c0-1.74,.05-1.99,2.14-1.99,2.44,0,3.96,1.24,3.96,3.53,0,1-.36,1.91-1.27,2.53-1.04,.72-2.17,.82-3.43,.82Z"/><g><path class="e" d="M88.52,143.02c0-2.43-.05-2.8-1.66-2.92l-.64-.05c-.15-.09-.1-.51,.05-.58,1.43,.05,2.3,.07,3.31,.07s1.86-.02,3.14-.07c.15,.07,.2,.49,.05,.58l-.61,.05c-1.5,.12-1.56,.49-1.56,2.92v8.07c0,1.46,.08,2.06,.53,2.5,.28,.25,.77,.53,2.78,.53,2.17,0,2.7-.09,3.11-.3,.51-.28,1.17-1.11,1.68-2.3,.15-.11,.64-.02,.64,.14,0,.26-.72,2.62-1.07,3.25-1.3-.05-3.72-.07-6.35-.07h-2.35c-1.07,0-1.89,.02-3.31,.07-.15-.07-.2-.44-.05-.58l.77-.07c1.48-.14,1.53-.46,1.53-2.9v-8.35Z"/><path class="e" d="M156.83,143.07c0-2.46-.05-2.85-1.53-2.97l-.63-.05c-.15-.09-.1-.51,.05-.58,1.25,.05,2.1,.07,3.15,.07s1.85-.02,3.11-.07c.15,.07,.2,.49,.05,.58l-.63,.05c-1.48,.12-1.53,.51-1.53,2.97v8.26c0,2.46,.05,2.78,1.53,2.94l.63,.07c.15,.09,.1,.51-.05,.58-1.25-.05-2.11-.07-3.11-.07-1.05,0-1.9,.02-3.15,.07-.15-.07-.2-.44-.05-.58l.63-.07c1.48-.16,1.53-.49,1.53-2.94v-8.26Z"/><path class="e" d="M136.82,154.26c-.13-.01-.37-.03-.37-.03-.26-.03-.5-.06-.69-.27-.32-.35-.3-1.33-.3-1.73v-10.16c0-.44-.11-1.4,.22-1.75,.16-.18,.5-.21,.8-.23h0c.18-.02,.19-.02,.35-.02l.64-.04c.15-.09,.1-.51-.05-.58-.34,.01-.66,.01-.95,.02h-2.74c-.3,0-.57,0-.73,.32l-5.57,11.61-4.92-11.22c-.16-.39-.19-.71-.7-.71h-2.85c-.3,0-.62,0-.97-.02-.15,.07-.21,.49-.05,.58l.64,.04c.13,.01,.37,.03,.37,.03,1.07,.07,1.13,.31,1.04,1.43l-.84,10.9c-.07,1.09-.13,1.67-1.28,1.78,0,0-.24,.03-.37,.04l-.64,.07c-.15,.14-.1,.51,.05,.58,.34-.01,.94-.03,.94-.03,.58-.03,1.17-.08,1.77-.08,.64,0,1.27,.06,1.91,.09h0c.3,0,.61,.02,.95,.03,.15-.07,.21-.44,.05-.58l-.65-.07c-.17-.01-.36-.03-.36-.03-1.65-.11-1.62-1.28-1.51-2.71l.79-10.13h.19l5.33,12.47c.05,.17,.13,.47,.41,.47,.24,0,.33-.27,.41-.44l6.01-12.79h.19v11.14c0,.44,.06,1.36-.4,1.7-.24,.18-1.02,.29-1.02,.29-.11,.02-.22,.03-.35,.05l-.64,.07c-.15,.14-.1,.51,.05,.58,.34-.01,.94-.03,.94-.03,.87-.02,1.76-.09,2.64-.09,.64,0,1.89,.06,1.89,.06,.3,.01,.64,.04,.98,.05,.15-.07,.21-.44,.05-.58l-.64-.07Z"/><path class="e" d="M178.63,154.33l-.08-.07c-.13-.02-.24-.03-.35-.05-1-.22-1.39-1.43-1.77-2.29l-5.16-12.21c-.05-.15-.15-.46-.36-.46-.28,0-.36,.34-.43,.53l-4.93,12.19c-.18,.46-.64,1.58-.97,1.92-.26,.26-.59,.31-.94,.35,0,0-.28,.03-.41,.04l-.61,.06c-.15,.14-.1,.51,.05,.58,.34-.01,.95-.04,.95-.04,.67-.01,1.35-.1,2.02-.1,.57,0,1.14,.06,1.7,.09,0,0,.61,.02,.95,.04,.16-.07,.21-.44,.05-.58l-.64-.07c-.13-.01-.35-.03-.35-.03-.59-.07-1.33-.17-1.33-.82,0-.44,.2-.95,.36-1.34l.77-1.82c.38-.88,.23-.98,1.25-.98h3.47c1.23,0,1.05,0,1.58,1.24l.82,1.85c.13,.31,.36,.85,.36,1.19,0,.61-.67,.65-1.29,.7,0,0-.21,.02-.38,.03l-.62,.04c-.16,.14-.1,.51,.05,.58,.35-.01,.95-.04,.95-.04,.73-.02,1.46-.08,2.16-.08,.9,0,1.79,.06,2.68,.09h0c.29,.01,.05,.02,.39,.03,.15-.07,.21-.44,.05-.58Zm-6.76-5.74h-3.01c-.1,0-.94,.1-.94-.15,0-.07,.05-.22,.08-.29l1.81-4.47c.05-.12,.24-.74,.44-.74,.16,0,.37,.64,.42,.74l1.78,4.18s.18,.44,.18,.54c0,.27-.6,.2-.76,.2Z"/></g><path class="e" d="M65.17,84.34c-.42,1.99-1.19,5.74-1.19,10.75,0,3.24,.34,5.97,.92,9.04h0c.45-.09,.63-.14,1.13-.24h0c4.56-.79,11.79-1.73,17.96-.95,9.81,1.24,15.94,2.89,26.3,5.23,10.35,2.34,17.98,4.55,29.16,3.31,9.78-1.09,16.48-2.61,23-6.9h0s.53-.34,.53-.34c.11-.08,.56-.41,.7-.51,.48-2.8,.84-5.58,.84-8.51h0c0-3.93-.53-8.18-1.38-11.9l-6.92-3.86-8.01,5.62-5.39-2.1c-1.83,.92-13.07,8.44-13.07,8.44l-4.32-3.12-4.63-.92-6.17-4.5-7.09,4.87s-7.9,4.59-8.18,4.59-9.54-7.35-9.54-7.35l-4.27-4.5c-.73,.46-3.63,1.79-3.63,1.79l-.15,.04-2.81-.87-3.41-1.81-10.36,4.7Z"/><polygon class="d" points="155.12 79.35 144.95 83.11 148.16 84.21 155.12 79.35"/><path class="c" d="M74.01,79.48l-5.71-2.11c.07-.18,.13-.35,.2-.53l6.28,2.19,.6-.38,3,1.63,3.73,1.36,.22-.1-13.3-5.99c.07-.18,.15-.35,.23-.53l14.65,5.85,.21-.11-14.28-7.01c.08-.17,.16-.34,.24-.5l15.51,6.76-14.87-8.01c.08-.15,.16-.3,.24-.46l20.89,11.06c.3-.56,.62-1.1,.96-1.64l-17.02-13.3,18.17,11.66c.45-.59,.92-1.16,1.42-1.71l-17.48-15.84c.13-.14,.25-.27,.38-.41l12.7,11.22-11.74-12.22c.13-.14,.27-.27,.4-.41l13.25,12.72-12.24-13.68c.14-.13,.27-.25,.41-.38l11.86,12.1-10.81-13.03c.13-.11,.27-.22,.4-.34l15.18,18.02c.58-.51,1.19-.99,1.82-1.44l-10.83-18.75,12.5,17.65c.68-.41,1.38-.78,2.09-1.13l-10.24-21.17c.18-.08,.36-.17,.54-.25l7.58,15.18-6.32-15.75c.18-.07,.35-.15,.53-.22l7.53,16.78-6.23-17.29c.17-.07,.34-.13,.51-.2l6.48,15.68-5.15-16.15c.15-.05,.3-.1,.46-.15l7.3,22.33c.68-.23,1.37-.43,2.07-.6l-3.01-21.44,4.98,21.05c.83-.13,1.67-.22,2.53-.27l-1.56-23.39c.18,0,.35-.02,.53-.03l1.61,16.81-.24-16.86c.19,0,.39,0,.58,0l.69,17.7,.69-17.7c.19,0,.37,0,.56,.01l-.15,16.84,1.54-16.78c.17,.01,.35,.02,.52,.03l-1.59,23.37c.81,.05,1.61,.14,2.4,.26l4.97-20.98-3.01,21.37c.74,.18,1.46,.39,2.17,.63l7.27-22.23c.17,.06,.34,.12,.51,.18l-5.1,15.99,6.41-15.52c.18,.07,.35,.13,.52,.2l-6.17,17.12,7.45-16.6c.18,.08,.36,.16,.53,.23l-6.24,15.57,7.49-15c.16,.08,.32,.15,.48,.23l-10.18,21.04c.69,.34,1.37,.7,2.03,1.1l12.47-17.6-10.8,18.7c.65,.47,1.27,.96,1.87,1.48l15.05-17.86c.14,.11,.28,.24,.41,.36l-10.7,12.9,11.73-11.97c.14,.13,.28,.26,.42,.39l-12.12,13.54,13.1-12.58c.14,.14,.27,.28,.41,.41l-11.6,12.07,12.54-11.08c.12,.13,.24,.26,.35,.39l-17.31,15.68c.49,.55,.96,1.11,1.4,1.7l18.13-11.63-16.99,13.27c.34,.53,.66,1.08,.96,1.64l20.64-10.93c.09,.16,.17,.32,.26,.49l-14.62,7.88,15.24-6.64c.08,.17,.16,.34,.24,.51l-16.19,7.96,16.76-6.71c.08,.18,.16,.35,.23,.54l-15.19,6.81,15.7-5.55c.06,.16,.12,.33,.19,.49l-3.36,1.24,4.99,3.79,1.38,.77h0c-.53-2.1-1.33-4.68-2.11-6.67-7.49-18.98-26.36-31.92-46.83-31.92-23.98,0-44.02,16.84-48.96,39.34h0s-.03,.15-.05,.28l.98-.45,7.87-4.41Z"/></g><g><path class="e" d="M248.53,154.15c-1.52,.73-5.12,1.63-9.68,1.63-13.11,0-19.86-8.21-19.86-19.02,0-12.88,9.23-20.03,20.7-20.03,4.44,0,7.82,.9,9.34,1.63l-1.8,6.81c-1.69-.73-4.11-1.41-7.2-1.41-6.75,0-12.04,4.11-12.04,12.55,0,7.54,4.5,12.32,12.1,12.32,2.64,0,5.46-.51,7.2-1.24l1.24,6.75Z"/><path class="e" d="M264.11,155.84c-8.04,0-14.23-5.29-14.23-14.18s5.85-14.57,14.74-14.57c8.38,0,14.01,5.79,14.01,14.12,0,10.01-7.14,14.63-14.46,14.63h-.06Zm.23-6.13c3.38,0,5.46-3.32,5.46-8.27,0-4.05-1.58-8.21-5.46-8.21s-5.63,4.16-5.63,8.27c0,4.67,1.97,8.21,5.57,8.21h.06Z"/><path class="e" d="M282.5,136.48c0-3.43-.11-6.3-.22-8.78h7.26l.34,3.77h.17c1.18-1.8,3.66-4.39,8.33-4.39,3.6,0,6.36,1.86,7.54,4.73h.11c1.07-1.46,2.25-2.59,3.6-3.38,1.52-.84,3.21-1.35,5.23-1.35,5.29,0,9.28,3.71,9.28,11.93v16.2h-8.33v-14.91c0-3.99-1.29-6.3-4.05-6.3-2.03,0-3.38,1.35-3.99,2.98-.17,.62-.28,1.46-.28,2.14v16.09h-8.33v-15.42c0-3.43-1.24-5.79-4-5.79-2.19,0-3.49,1.69-3.99,3.04-.28,.68-.34,1.46-.34,2.19v15.98h-8.33v-18.73Z"/><path class="e" d="M329.47,136.48c0-3.43-.11-6.3-.22-8.78h7.26l.34,3.77h.17c1.18-1.8,3.66-4.39,8.33-4.39,3.6,0,6.36,1.86,7.54,4.73h.11c1.07-1.46,2.25-2.59,3.6-3.38,1.52-.84,3.21-1.35,5.23-1.35,5.29,0,9.28,3.71,9.28,11.93v16.2h-8.33v-14.91c0-3.99-1.29-6.3-4.05-6.3-2.03,0-3.38,1.35-3.99,2.98-.17,.62-.28,1.46-.28,2.14v16.09h-8.33v-15.42c0-3.43-1.24-5.79-4-5.79-2.19,0-3.49,1.69-3.99,3.04-.28,.68-.34,1.46-.34,2.19v15.98h-8.33v-18.73Z"/><path class="e" d="M402.38,146.38c0,3.6,.11,6.53,.23,8.83h-7.43l-.39-3.88h-.17c-1.07,1.69-3.66,4.5-8.61,4.5-5.63,0-9.68-3.49-9.68-11.98v-16.15h8.55v14.8c0,3.99,1.29,6.41,4.33,6.41,2.36,0,3.77-1.63,4.28-2.98,.22-.51,.34-1.12,.34-1.86v-16.37h8.55v18.68Z"/><path class="e" d="M407.83,136.48c0-3.43-.11-6.3-.22-8.78h7.43l.39,3.83h.17c1.12-1.8,3.88-4.44,8.5-4.44,5.63,0,9.85,3.77,9.85,11.87v16.26h-8.55v-15.25c0-3.54-1.24-5.96-4.33-5.96-2.36,0-3.77,1.63-4.39,3.21-.23,.56-.28,1.35-.28,2.14v15.87h-8.55v-18.73Z"/><path class="e" d="M443.61,124.33c-2.7,0-4.44-1.91-4.44-4.28s1.8-4.28,4.56-4.28,4.44,1.86,4.5,4.28c0,2.36-1.74,4.28-4.56,4.28h-.06Zm-4.22,30.89v-27.51h8.55v27.51h-8.55Z"/><path class="e" d="M462.96,120.22v7.48h6.13v6.3h-6.13v9.96c0,3.32,.84,4.84,3.38,4.84,1.18,0,1.74-.06,2.53-.23l.06,6.47c-1.07,.39-3.15,.73-5.51,.73-2.76,0-5.06-.96-6.47-2.36-1.58-1.63-2.36-4.28-2.36-8.16v-11.25h-3.66v-6.3h3.66v-5.18l8.38-2.31Z"/><path class="e" d="M476.85,124.33c-2.7,0-4.44-1.91-4.44-4.28s1.8-4.28,4.56-4.28,4.44,1.86,4.5,4.28c0,2.36-1.74,4.28-4.56,4.28h-.06Zm-4.22,30.89v-27.51h8.55v27.51h-8.55Z"/><path class="e" d="M493.22,144.19c.28,3.54,3.77,5.23,7.76,5.23,2.92,0,5.29-.39,7.59-1.18l1.12,5.79c-2.81,1.18-6.25,1.74-9.96,1.74-9.34,0-14.68-5.4-14.68-14.01,0-6.98,4.39-14.68,13.9-14.68,8.89,0,12.26,6.92,12.26,13.73,0,1.46-.17,2.76-.28,3.38h-17.72Zm10.07-5.85c0-2.08-.9-5.57-4.78-5.57-3.66,0-5.12,3.32-5.34,5.57h10.13Z"/><path class="e" d="M514.88,147.73c1.58,.96,4.84,2.03,7.37,2.03s3.66-.84,3.66-2.25-.84-2.14-3.99-3.15c-5.74-1.91-7.93-5.01-7.88-8.21,0-5.18,4.39-9.06,11.2-9.06,3.21,0,6.02,.79,7.71,1.63l-1.46,5.85c-1.24-.62-3.66-1.52-5.96-1.52-2.08,0-3.26,.84-3.26,2.19s1.07,2.03,4.45,3.15c5.23,1.8,7.37,4.44,7.43,8.44,0,5.18-3.99,8.95-11.87,8.95-3.6,0-6.81-.84-8.89-1.97l1.52-6.08Z"/><path class="e" d="M548.18,117.86c2.25-.45,6.75-.84,11.08-.84,5.23,0,8.44,.51,11.2,2.14,2.64,1.41,4.5,3.99,4.5,7.48s-1.97,6.41-6.19,8.04v.11c4.33,1.12,7.54,4.44,7.54,9.34,0,3.49-1.58,6.19-3.94,8.04-2.76,2.19-7.37,3.43-14.91,3.43-4.22,0-7.37-.28-9.28-.56v-37.19Zm8.5,14.46h2.81c4.56,0,6.92-1.86,6.92-4.67s-2.19-4.39-6.08-4.39c-1.91,0-2.98,.11-3.66,.28v8.78Zm0,16.82c.84,.17,1.86,.17,3.32,.17,3.88,0,7.31-1.52,7.31-5.51s-3.43-5.34-7.71-5.34h-2.93v10.69Z"/><path class="e" d="M608.54,154.15c-1.52,.73-5.12,1.63-9.68,1.63-13.11,0-19.86-8.21-19.86-19.02,0-12.88,9.23-20.03,20.7-20.03,4.44,0,7.82,.9,9.34,1.63l-1.8,6.81c-1.69-.73-4.11-1.41-7.2-1.41-6.75,0-12.04,4.11-12.04,12.55,0,7.54,4.5,12.32,12.1,12.32,2.64,0,5.46-.51,7.2-1.24l1.24,6.75Z"/><g><path class="e" d="M248.53,99.09c-1.52,.73-5.12,1.63-9.68,1.63-13.11,0-19.86-8.21-19.86-19.02,0-12.88,9.23-20.03,20.7-20.03,4.44,0,7.82,.9,9.34,1.63l-1.8,6.81c-1.69-.73-4.11-1.41-7.2-1.41-6.75,0-12.04,4.11-12.04,12.55,0,7.54,4.5,12.32,12.1,12.32,2.64,0,5.46-.51,7.2-1.24l1.24,6.75Z"/><path class="e" d="M264.11,100.78c-8.04,0-14.23-5.29-14.23-14.18s5.85-14.57,14.74-14.57c8.38,0,14.01,5.79,14.01,14.12,0,10.01-7.14,14.63-14.46,14.63h-.06Zm.23-6.13c3.38,0,5.46-3.32,5.46-8.27,0-4.05-1.58-8.21-5.46-8.21s-5.63,4.16-5.63,8.27c0,4.67,1.97,8.21,5.57,8.21h.06Z"/><path class="e" d="M282.5,81.43c0-3.43-.11-6.3-.22-8.78h7.43l.39,3.83h.17c1.12-1.8,3.88-4.44,8.5-4.44,5.63,0,9.85,3.77,9.85,11.87v16.26h-8.55v-15.25c0-3.54-1.24-5.96-4.33-5.96-2.36,0-3.77,1.63-4.39,3.21-.23,.56-.28,1.35-.28,2.14v15.87h-8.55v-18.73Z"/><path class="e" d="M314.06,81.43c0-3.43-.11-6.3-.22-8.78h7.43l.39,3.83h.17c1.12-1.8,3.88-4.44,8.5-4.44,5.63,0,9.85,3.77,9.85,11.87v16.26h-8.55v-15.25c0-3.54-1.24-5.96-4.33-5.96-2.36,0-3.77,1.63-4.39,3.21-.23,.56-.28,1.35-.28,2.14v15.87h-8.55v-18.73Z"/><path class="e" d="M352.2,89.14c.28,3.54,3.77,5.23,7.76,5.23,2.92,0,5.29-.39,7.59-1.18l1.12,5.79c-2.81,1.18-6.25,1.74-9.96,1.74-9.34,0-14.68-5.4-14.68-14.01,0-6.98,4.39-14.68,13.9-14.68,8.89,0,12.26,6.92,12.26,13.73,0,1.46-.17,2.76-.28,3.38h-17.72Zm10.07-5.85c0-2.08-.9-5.57-4.78-5.57-3.66,0-5.12,3.32-5.34,5.57h10.13Z"/><path class="e" d="M394.56,99.43c-1.52,.73-4.39,1.29-7.65,1.29-8.89,0-14.57-5.46-14.57-14.06,0-7.99,5.51-14.57,15.75-14.57,2.25,0,4.73,.39,6.53,1.07l-1.35,6.36c-1.01-.45-2.53-.84-4.78-.84-4.5,0-7.43,3.21-7.37,7.65,0,5.06,3.38,7.71,7.54,7.71,2.03,0,3.6-.34,4.89-.9l1.01,6.3Z"/><path class="e" d="M408.34,65.17v7.48h6.13v6.3h-6.13v9.96c0,3.32,.84,4.84,3.38,4.84,1.18,0,1.74-.06,2.53-.23l.06,6.47c-1.07,.39-3.15,.73-5.51,.73-2.76,0-5.06-.96-6.47-2.36-1.58-1.63-2.36-4.28-2.36-8.16v-11.25h-3.66v-6.3h3.66v-5.18l8.38-2.31Z"/><path class="e" d="M422.23,69.28c-2.7,0-4.44-1.91-4.44-4.28s1.8-4.28,4.56-4.28,4.44,1.86,4.5,4.28c0,2.36-1.74,4.28-4.56,4.28h-.06Zm-4.22,30.89v-27.51h8.55v27.51h-8.55Z"/><path class="e" d="M432.02,81.43c0-3.43-.11-6.3-.22-8.78h7.43l.39,3.83h.17c1.12-1.8,3.88-4.44,8.5-4.44,5.63,0,9.85,3.77,9.85,11.87v16.26h-8.55v-15.25c0-3.54-1.24-5.96-4.33-5.96-2.36,0-3.77,1.63-4.39,3.21-.23,.56-.28,1.35-.28,2.14v15.87h-8.55v-18.73Z"/><path class="e" d="M489.63,96.17c0,5.29-1.07,9.62-4.22,12.38-2.98,2.59-7.09,3.38-11.14,3.38-3.66,0-7.43-.73-9.9-2.08l1.69-6.53c1.74,1.01,4.73,2.08,7.99,2.08,4.05,0,7.14-2.14,7.14-7.26v-1.74h-.11c-1.63,2.25-4.28,3.54-7.43,3.54-6.81,0-11.65-5.51-11.65-13.39,0-8.89,5.68-14.51,12.49-14.51,3.77,0,6.13,1.63,7.54,3.94h.11l.28-3.32h7.43c-.11,1.8-.23,4.11-.23,8.21v15.3Zm-8.55-12.32c0-.51-.06-1.07-.17-1.58-.62-2.25-2.25-3.77-4.61-3.77-3.15,0-5.63,2.81-5.63,7.82,0,4.11,2.03,7.31,5.57,7.31,2.25,0,4-1.46,4.56-3.43,.22-.67,.28-1.58,.28-2.31v-4.05Z"/></g></g></svg>